<svg width="2915" height="1554" xmlns="http://www.w3.org/2000/svg" xmlns:xlink="http://www.w3.org/1999/xlink" xml:space="preserve" overflow="hidden"><defs><clipPath id="clip0"><rect x="1177" y="343" width="2915" height="1554"/></clipPath><clipPath id="clip1"><rect x="1183" y="344" width="2906" height="1547"/></clipPath><clipPath id="clip2"><rect x="1183" y="344" width="2906" height="1547"/></clipPath><clipPath id="clip3"><rect x="1183" y="344" width="2906" height="1547"/></clipPath><clipPath id="clip4"><rect x="1183" y="344" width="2906" height="1547"/></clipPath><clipPath id="clip5"><rect x="1183" y="344" width="2906" height="1547"/></clipPath><clipPath id="clip6"><rect x="1183" y="344" width="2906" height="1547"/></clipPath><clipPath id="clip7"><rect x="1183" y="344" width="2906" height="1547"/></clipPath><clipPath id="clip8"><rect x="1183" y="344" width="2906" height="1547"/></clipPath><clipPath id="clip9"><rect x="1183" y="344" width="2906" height="1547"/></clipPath><clipPath id="clip10"><rect x="1183" y="344" width="2906" height="1547"/></clipPath><clipPath id="clip11"><rect x="1183" y="344" width="2906" height="1547"/></clipPath><clipPath id="clip12"><rect x="1183" y="344" width="2906" height="1547"/></clipPath><clipPath id="clip13"><rect x="1183" y="344" width="2906" height="1547"/></clipPath><clipPath id="clip14"><rect x="1183" y="344" width="2906" height="1547"/></clipPath><clipPath id="clip15"><rect x="1183" y="344" width="2906" height="1547"/></clipPath><clipPath id="clip16"><rect x="1183" y="344" width="2906" height="1547"/></clipPath><clipPath id="clip17"><rect x="1183" y="344" width="2906" height="1547"/></clipPath><clipPath id="clip18"><rect x="1183" y="344" width="2906" height="1547"/></clipPath><clipPath id="clip19"><rect x="1183" y="344" width="2906" height="1547"/></clipPath><clipPath id="clip20"><rect x="1183" y="344" width="2906" height="1547"/></clipPath><clipPath id="clip21"><rect x="1183" y="344" width="2906" height="1547"/></clipPath><clipPath id="clip22"><rect x="1183" y="344" width="2906" height="1547"/></clipPath><clipPath id="clip23"><rect x="1183" y="344" width="2906" height="1547"/></clipPath><clipPath id="clip24"><rect x="1183" y="344" width="2906" height="1547"/></clipPath><clipPath id="clip25"><rect x="1183" y="344" width="2906" height="1547"/></clipPath><clipPath id="clip26"><rect x="1183" y="344" width="2906" height="1547"/></clipPath><clipPath id="clip27"><rect x="1183" y="344" width="2906" height="1547"/></clipPath><clipPath id="clip28"><rect x="1183" y="344" width="2906" height="1547"/></clipPath><clipPath id="clip29"><rect x="1183" y="344" width="2906" height="1547"/></clipPath><clipPath id="clip30"><rect x="1183" y="344" width="2906" height="1547"/></clipPath><clipPath id="clip31"><rect x="1183" y="344" width="2906" height="1547"/></clipPath></defs><g clip-path="url(#clip0)" transform="translate(-1177 -343)"><rect x="1183" y="345" width="2907" height="1547" fill="#FFFFFF" fill-opacity="1"/><g clip-path="url(#clip1)"><path d="M1428.5 1493.55 3993.5 1493.55M1428.5 1297.54 3993.5 1297.54M1428.5 1101.54 3993.5 1101.54M1428.5 905.53 3993.5 905.53M1428.5 709.523 3993.5 709.523M1428.5 513.5 3993.5 513.5" stroke="#D9D9D9" stroke-width="3.4375" stroke-linecap="butt" stroke-linejoin="round" stroke-miterlimit="10" stroke-opacity="1" fill="none" fill-rule="nonzero"/></g><g clip-path="url(#clip2)"><path d="M1794.56 513.5 1794.56 1689.5M2161.57 513.5 2161.57 1689.5M2527.58 513.5 2527.58 1689.5M2894.6 513.5 2894.6 1689.5M3260.61 513.5 3260.61 1689.5M3627.62 513.5 3627.62 1689.5M3993.5 513.5 3993.5 1689.5" stroke="#D9D9D9" stroke-width="3.4375" stroke-linecap="butt" stroke-linejoin="round" stroke-miterlimit="10" stroke-opacity="1" fill="none" fill-rule="nonzero"/></g><g clip-path="url(#clip3)"><path d="M0 0 0.000360892 1176" stroke="#BFBFBF" stroke-width="3.4375" stroke-linecap="butt" stroke-linejoin="round" stroke-miterlimit="10" stroke-opacity="1" fill="none" fill-rule="evenodd" transform="matrix(1 0 0 -1 1428.5 1689.5)"/></g><g clip-path="url(#clip4)"><path d="M1428.5 1689.5 3993.5 1689.5" stroke="#BFBFBF" stroke-width="3.4375" stroke-linecap="butt" stroke-linejoin="round" stroke-miterlimit="10" stroke-opacity="1" fill="none" fill-rule="evenodd"/></g><g clip-path="url(#clip5)"><path d="M1733.42 1251.01C1733.42 1257.36 1728.27 1262.51 1721.92 1262.51 1715.56 1262.51 1710.42 1257.36 1710.42 1251.01 1710.42 1244.66 1715.56 1239.51 1721.92 1239.51 1728.27 1239.51 1733.42 1244.66 1733.42 1251.01Z" fill="#4472C4" fill-rule="nonzero" fill-opacity="1"/><path d="M1770.42 1212.01C1770.42 1218.36 1765.27 1223.51 1758.92 1223.51 1752.57 1223.51 1747.42 1218.36 1747.42 1212.01 1747.42 1205.66 1752.57 1200.51 1758.92 1200.51 1765.27 1200.51 1770.42 1205.66 1770.42 1212.01Z" fill="#4472C4" fill-rule="nonzero" fill-opacity="1"/><path d="M1807.42 1193.01C1807.42 1199.36 1802.27 1204.51 1795.92 1204.51 1789.56 1204.51 1784.42 1199.36 1784.42 1193.01 1784.42 1186.66 1789.56 1181.51 1795.92 1181.51 1802.27 1181.51 1807.42 1186.66 1807.42 1193.01Z" fill="#4472C4" fill-rule="nonzero" fill-opacity="1"/><path d="M1843.42 1205.01C1843.42 1211.36 1838.27 1216.51 1831.92 1216.51 1825.56 1216.51 1820.42 1211.36 1820.42 1205.01 1820.42 1198.66 1825.56 1193.51 1831.92 1193.51 1838.27 1193.51 1843.42 1198.66 1843.42 1205.01Z" fill="#4472C4" fill-rule="nonzero" fill-opacity="1"/><path d="M1880.42 1169.01C1880.42 1175.36 1875.27 1180.51 1868.92 1180.51 1862.57 1180.51 1857.42 1175.36 1857.42 1169.01 1857.42 1162.66 1862.57 1157.51 1868.92 1157.51 1875.27 1157.51 1880.42 1162.66 1880.42 1169.01Z" fill="#4472C4" fill-rule="nonzero" fill-opacity="1"/><path d="M1917.42 1072.01C1917.42 1078.36 1912.27 1083.51 1905.92 1083.51 1899.56 1083.51 1894.42 1078.36 1894.42 1072.01 1894.42 1065.66 1899.56 1060.51 1905.92 1060.51 1912.27 1060.51 1917.42 1065.66 1917.42 1072.01Z" fill="#4472C4" fill-rule="nonzero" fill-opacity="1"/><path d="M1953.42 1068.01C1953.42 1074.36 1948.27 1079.51 1941.92 1079.51 1935.56 1079.51 1930.42 1074.36 1930.42 1068.01 1930.42 1061.66 1935.56 1056.51 1941.92 1056.51 1948.27 1056.51 1953.42 1061.66 1953.42 1068.01Z" fill="#4472C4" fill-rule="nonzero" fill-opacity="1"/><path d="M1990.42 1094.01C1990.42 1100.36 1985.27 1105.51 1978.92 1105.51 1972.57 1105.51 1967.42 1100.36 1967.42 1094.01 1967.42 1087.66 1972.57 1082.51 1978.92 1082.51 1985.27 1082.51 1990.42 1087.66 1990.42 1094.01Z" fill="#4472C4" fill-rule="nonzero" fill-opacity="1"/><path d="M2027.42 1090.01C2027.42 1096.36 2022.27 1101.51 2015.92 1101.51 2009.56 1101.51 2004.42 1096.36 2004.42 1090.01 2004.42 1083.66 2009.56 1078.51 2015.92 1078.51 2022.27 1078.51 2027.42 1083.66 2027.42 1090.01Z" fill="#4472C4" fill-rule="nonzero" fill-opacity="1"/><path d="M2063.42 1035.01C2063.42 1041.36 2058.27 1046.51 2051.92 1046.51 2045.56 1046.51 2040.42 1041.36 2040.42 1035.01 2040.42 1028.66 2045.56 1023.51 2051.92 1023.51 2058.27 1023.51 2063.42 1028.66 2063.42 1035.01Z" fill="#4472C4" fill-rule="nonzero" fill-opacity="1"/><path d="M2100.42 1038.01C2100.42 1044.36 2095.27 1049.51 2088.92 1049.51 2082.57 1049.51 2077.42 1044.36 2077.42 1038.01 2077.42 1031.66 2082.57 1026.51 2088.92 1026.51 2095.27 1026.51 2100.42 1031.66 2100.42 1038.01Z" fill="#4472C4" fill-rule="nonzero" fill-opacity="1"/><path d="M2136.42 1018.01C2136.42 1024.36 2131.27 1029.51 2124.92 1029.51 2118.56 1029.51 2113.42 1024.36 2113.42 1018.01 2113.42 1011.66 2118.56 1006.51 2124.92 1006.51 2131.27 1006.51 2136.42 1011.66 2136.42 1018.01Z" fill="#4472C4" fill-rule="nonzero" fill-opacity="1"/><path d="M2173.42 942.013C2173.42 948.364 2168.27 953.513 2161.92 953.513 2155.56 953.513 2150.42 948.364 2150.42 942.013 2150.42 935.662 2155.56 930.513 2161.92 930.513 2168.27 930.513 2173.42 935.662 2173.42 942.013Z" fill="#4472C4" fill-rule="nonzero" fill-opacity="1"/><path d="M2210.42 931.013C2210.42 937.364 2205.27 942.513 2198.92 942.513 2192.57 942.513 2187.42 937.364 2187.42 931.013 2187.42 924.662 2192.57 919.513 2198.92 919.513 2205.27 919.513 2210.42 924.662 2210.42 931.013Z" fill="#4472C4" fill-rule="nonzero" fill-opacity="1"/><path d="M2246.42 988.013C2246.42 994.364 2241.27 999.513 2234.92 999.513 2228.56 999.513 2223.42 994.364 2223.42 988.013 2223.42 981.662 2228.56 976.513 2234.92 976.513 2241.27 976.513 2246.42 981.662 2246.42 988.013Z" fill="#4472C4" fill-rule="nonzero" fill-opacity="1"/><path d="M2283.42 920.013C2283.42 926.364 2278.27 931.513 2271.92 931.513 2265.56 931.513 2260.42 926.364 2260.42 920.013 2260.42 913.662 2265.56 908.513 2271.92 908.513 2278.27 908.513 2283.42 913.662 2283.42 920.013Z" fill="#4472C4" fill-rule="nonzero" fill-opacity="1"/><path d="M2320.42 876.013C2320.42 882.364 2315.27 887.513 2308.92 887.513 2302.57 887.513 2297.42 882.364 2297.42 876.013 2297.42 869.662 2302.57 864.513 2308.92 864.513 2315.27 864.513 2320.42 869.662 2320.42 876.013Z" fill="#4472C4" fill-rule="nonzero" fill-opacity="1"/><path d="M2356.42 844.013C2356.42 850.364 2351.27 855.513 2344.92 855.513 2338.56 855.513 2333.42 850.364 2333.42 844.013 2333.42 837.662 2338.56 832.513 2344.92 832.513 2351.27 832.513 2356.42 837.662 2356.42 844.013Z" fill="#4472C4" fill-rule="nonzero" fill-opacity="1"/><path d="M2393.42 881.013C2393.42 887.364 2388.27 892.513 2381.92 892.513 2375.56 892.513 2370.42 887.364 2370.42 881.013 2370.42 874.662 2375.56 869.513 2381.92 869.513 2388.27 869.513 2393.42 874.662 2393.42 881.013Z" fill="#4472C4" fill-rule="nonzero" fill-opacity="1"/><path d="M2430.42 877.013C2430.42 883.364 2425.27 888.513 2418.92 888.513 2412.57 888.513 2407.42 883.364 2407.42 877.013 2407.42 870.662 2412.57 865.513 2418.92 865.513 2425.27 865.513 2430.42 870.662 2430.42 877.013Z" fill="#4472C4" fill-rule="nonzero" fill-opacity="1"/><path d="M2466.42 825.013C2466.42 831.365 2461.27 836.513 2454.92 836.513 2448.56 836.513 2443.42 831.365 2443.42 825.013 2443.42 818.662 2448.56 813.513 2454.92 813.513 2461.27 813.513 2466.42 818.662 2466.42 825.013Z" fill="#4472C4" fill-rule="nonzero" fill-opacity="1"/><path d="M2503.42 854.013C2503.42 860.364 2498.27 865.513 2491.92 865.513 2485.56 865.513 2480.42 860.364 2480.42 854.013 2480.42 847.662 2485.56 842.513 2491.92 842.513 2498.27 842.513 2503.42 847.662 2503.42 854.013Z" fill="#4472C4" fill-rule="nonzero" fill-opacity="1"/><path d="M2540.42 863.013C2540.42 869.364 2535.27 874.513 2528.92 874.513 2522.57 874.513 2517.42 869.364 2517.42 863.013 2517.42 856.662 2522.57 851.513 2528.92 851.513 2535.27 851.513 2540.42 856.662 2540.42 863.013Z" fill="#4472C4" fill-rule="nonzero" fill-opacity="1"/><path d="M2576.42 873.013C2576.42 879.364 2571.27 884.513 2564.92 884.513 2558.56 884.513 2553.42 879.364 2553.42 873.013 2553.42 866.662 2558.56 861.513 2564.92 861.513 2571.27 861.513 2576.42 866.662 2576.42 873.013Z" fill="#4472C4" fill-rule="nonzero" fill-opacity="1"/><path d="M2613.42 924.013C2613.42 930.365 2608.27 935.513 2601.92 935.513 2595.56 935.513 2590.42 930.365 2590.42 924.013 2590.42 917.662 2595.56 912.513 2601.92 912.513 2608.27 912.513 2613.42 917.662 2613.42 924.013Z" fill="#4472C4" fill-rule="nonzero" fill-opacity="1"/><path d="M2650.42 988.013C2650.42 994.364 2645.27 999.513 2638.92 999.513 2632.57 999.513 2627.42 994.364 2627.42 988.013 2627.42 981.662 2632.57 976.513 2638.92 976.513 2645.27 976.513 2650.42 981.662 2650.42 988.013Z" fill="#4472C4" fill-rule="nonzero" fill-opacity="1"/><path d="M2686.42 976.013C2686.42 982.364 2681.27 987.513 2674.92 987.513 2668.56 987.513 2663.42 982.364 2663.42 976.013 2663.42 969.662 2668.56 964.513 2674.92 964.513 2681.27 964.513 2686.42 969.662 2686.42 976.013Z" fill="#4472C4" fill-rule="nonzero" fill-opacity="1"/><path d="M2723.42 936.013C2723.42 942.364 2718.27 947.513 2711.92 947.513 2705.56 947.513 2700.42 942.364 2700.42 936.013 2700.42 929.662 2705.56 924.513 2711.92 924.513 2718.27 924.513 2723.42 929.662 2723.42 936.013Z" fill="#4472C4" fill-rule="nonzero" fill-opacity="1"/><path d="M2760.42 936.013C2760.42 942.364 2755.27 947.513 2748.92 947.513 2742.57 947.513 2737.42 942.364 2737.42 936.013 2737.42 929.662 2742.57 924.513 2748.92 924.513 2755.27 924.513 2760.42 929.662 2760.42 936.013Z" fill="#4472C4" fill-rule="nonzero" fill-opacity="1"/><path d="M2796.42 1010.01C2796.42 1016.36 2791.27 1021.51 2784.92 1021.51 2778.56 1021.51 2773.42 1016.36 2773.42 1010.01 2773.42 1003.66 2778.56 998.513 2784.92 998.513 2791.27 998.513 2796.42 1003.66 2796.42 1010.01Z" fill="#4472C4" fill-rule="nonzero" fill-opacity="1"/><path d="M2833.42 932.013C2833.42 938.364 2828.27 943.513 2821.92 943.513 2815.56 943.513 2810.42 938.364 2810.42 932.013 2810.42 925.662 2815.56 920.513 2821.92 920.513 2828.27 920.513 2833.42 925.662 2833.42 932.013Z" fill="#4472C4" fill-rule="nonzero" fill-opacity="1"/><path d="M2869.42 910.013C2869.42 916.364 2864.27 921.513 2857.92 921.513 2851.56 921.513 2846.42 916.364 2846.42 910.013 2846.42 903.662 2851.56 898.513 2857.92 898.513 2864.27 898.513 2869.42 903.662 2869.42 910.013Z" fill="#4472C4" fill-rule="nonzero" fill-opacity="1"/><path d="M2906.42 917.013C2906.42 923.364 2901.27 928.513 2894.92 928.513 2888.56 928.513 2883.42 923.364 2883.42 917.013 2883.42 910.662 2888.56 905.513 2894.92 905.513 2901.27 905.513 2906.42 910.662 2906.42 917.013Z" fill="#4472C4" fill-rule="nonzero" fill-opacity="1"/><path d="M2943.42 877.013C2943.42 883.364 2938.27 888.513 2931.92 888.513 2925.56 888.513 2920.42 883.364 2920.42 877.013 2920.42 870.662 2925.56 865.513 2931.92 865.513 2938.27 865.513 2943.42 870.662 2943.42 877.013Z" fill="#4472C4" fill-rule="nonzero" fill-opacity="1"/><path d="M2979.42 798.013C2979.42 804.364 2974.27 809.513 2967.92 809.513 2961.56 809.513 2956.42 804.364 2956.42 798.013 2956.42 791.662 2961.56 786.513 2967.92 786.513 2974.27 786.513 2979.42 791.662 2979.42 798.013Z" fill="#4472C4" fill-rule="nonzero" fill-opacity="1"/><path d="M3089.42 758.013C3089.42 764.365 3084.27 769.513 3077.92 769.513 3071.56 769.513 3066.42 764.365 3066.42 758.013 3066.42 751.662 3071.56 746.513 3077.92 746.513 3084.27 746.513 3089.42 751.662 3089.42 758.013Z" fill="#4472C4" fill-rule="nonzero" fill-opacity="1"/><path d="M3126.42 708.013C3126.42 714.364 3121.27 719.513 3114.92 719.513 3108.56 719.513 3103.42 714.364 3103.42 708.013 3103.42 701.662 3108.56 696.513 3114.92 696.513 3121.27 696.513 3126.42 701.662 3126.42 708.013Z" fill="#4472C4" fill-rule="nonzero" fill-opacity="1"/><path d="M3163.42 771.013C3163.42 777.364 3158.27 782.513 3151.92 782.513 3145.56 782.513 3140.42 777.364 3140.42 771.013 3140.42 764.662 3145.56 759.513 3151.92 759.513 3158.27 759.513 3163.42 764.662 3163.42 771.013Z" fill="#4472C4" fill-rule="nonzero" fill-opacity="1"/><path d="M3199.42 770.013C3199.42 776.365 3194.27 781.513 3187.92 781.513 3181.56 781.513 3176.42 776.365 3176.42 770.013 3176.42 763.662 3181.56 758.513 3187.92 758.513 3194.27 758.513 3199.42 763.662 3199.42 770.013Z" fill="#4472C4" fill-rule="nonzero" fill-opacity="1"/><path d="M3236.42 739.013C3236.42 745.364 3231.27 750.513 3224.92 750.513 3218.56 750.513 3213.42 745.364 3213.42 739.013 3213.42 732.662 3218.56 727.513 3224.92 727.513 3231.27 727.513 3236.42 732.662 3236.42 739.013Z" fill="#4472C4" fill-rule="nonzero" fill-opacity="1"/><path d="M3273.42 698.013C3273.42 704.364 3268.27 709.513 3261.92 709.513 3255.56 709.513 3250.42 704.364 3250.42 698.013 3250.42 691.662 3255.56 686.513 3261.92 686.513 3268.27 686.513 3273.42 691.662 3273.42 698.013Z" fill="#4472C4" fill-rule="nonzero" fill-opacity="1"/><path d="M3309.42 724.013C3309.42 730.364 3304.27 735.513 3297.92 735.513 3291.56 735.513 3286.42 730.364 3286.42 724.013 3286.42 717.662 3291.56 712.513 3297.92 712.513 3304.27 712.513 3309.42 717.662 3309.42 724.013Z" fill="#4472C4" fill-rule="nonzero" fill-opacity="1"/><path d="M3346.42 747.013C3346.42 753.365 3341.27 758.513 3334.92 758.513 3328.56 758.513 3323.42 753.365 3323.42 747.013 3323.42 740.662 3328.56 735.513 3334.92 735.513 3341.27 735.513 3346.42 740.662 3346.42 747.013Z" fill="#4472C4" fill-rule="nonzero" fill-opacity="1"/><path d="M3383.42 701.013C3383.42 707.364 3378.27 712.513 3371.92 712.513 3365.56 712.513 3360.42 707.364 3360.42 701.013 3360.42 694.662 3365.56 689.513 3371.92 689.513 3378.27 689.513 3383.42 694.662 3383.42 701.013Z" fill="#4472C4" fill-rule="nonzero" fill-opacity="1"/><path d="M3419.42 718.013C3419.42 724.364 3414.27 729.513 3407.92 729.513 3401.56 729.513 3396.42 724.364 3396.42 718.013 3396.42 711.662 3401.56 706.513 3407.92 706.513 3414.27 706.513 3419.42 711.662 3419.42 718.013Z" fill="#4472C4" fill-rule="nonzero" fill-opacity="1"/><path d="M3456.42 719.013C3456.42 725.364 3451.27 730.513 3444.92 730.513 3438.56 730.513 3433.42 725.364 3433.42 719.013 3433.42 712.662 3438.56 707.513 3444.92 707.513 3451.27 707.513 3456.42 712.662 3456.42 719.013Z" fill="#4472C4" fill-rule="nonzero" fill-opacity="1"/><path d="M3493.42 649.013C3493.42 655.365 3488.27 660.513 3481.92 660.513 3475.56 660.513 3470.42 655.365 3470.42 649.013 3470.42 642.662 3475.56 637.513 3481.92 637.513 3488.27 637.513 3493.42 642.662 3493.42 649.013Z" fill="#4472C4" fill-rule="nonzero" fill-opacity="1"/><path d="M3529.42 626.013C3529.42 632.365 3524.27 637.513 3517.92 637.513 3511.56 637.513 3506.42 632.365 3506.42 626.013 3506.42 619.662 3511.56 614.513 3517.92 614.513 3524.27 614.513 3529.42 619.662 3529.42 626.013Z" fill="#4472C4" fill-rule="nonzero" fill-opacity="1"/><path d="M3566.42 623.013C3566.42 629.364 3561.27 634.513 3554.92 634.513 3548.56 634.513 3543.42 629.364 3543.42 623.013 3543.42 616.662 3548.56 611.513 3554.92 611.513 3561.27 611.513 3566.42 616.662 3566.42 623.013Z" fill="#4472C4" fill-rule="nonzero" fill-opacity="1"/><path d="M3602.42 606.013C3602.42 612.364 3597.27 617.513 3590.92 617.513 3584.56 617.513 3579.42 612.364 3579.42 606.013 3579.42 599.662 3584.56 594.513 3590.92 594.513 3597.27 594.513 3602.42 599.662 3602.42 606.013Z" fill="#4472C4" fill-rule="nonzero" fill-opacity="1"/><path d="M3639.42 569.013C3639.42 575.364 3634.27 580.513 3627.92 580.513 3621.56 580.513 3616.42 575.364 3616.42 569.013 3616.42 562.662 3621.56 557.513 3627.92 557.513 3634.27 557.513 3639.42 562.662 3639.42 569.013Z" fill="#4472C4" fill-rule="nonzero" fill-opacity="1"/><path d="M3676.42 576.013C3676.42 582.364 3671.27 587.513 3664.92 587.513 3658.56 587.513 3653.42 582.364 3653.42 576.013 3653.42 569.662 3658.56 564.513 3664.92 564.513 3671.27 564.513 3676.42 569.662 3676.42 576.013Z" fill="#4472C4" fill-rule="nonzero" fill-opacity="1"/></g><g clip-path="url(#clip6)"><path d="M3016 759.5C3016 765.851 3010.85 771 3004.5 771 2998.15 771 2993 765.851 2993 759.5 2993 753.149 2998.15 748 3004.5 748 3010.85 748 3016 753.149 3016 759.5Z" fill="#70AD47" fill-rule="nonzero" fill-opacity="1"/></g><g clip-path="url(#clip7)"><path d="M3052 780.5C3052 786.851 3046.85 792 3040.5 792 3034.15 792 3029 786.851 3029 780.5 3029 774.149 3034.15 769 3040.5 769 3046.85 769 3052 774.149 3052 780.5Z" fill="#ED7D31" fill-rule="nonzero" fill-opacity="1"/></g><g clip-path="url(#clip8)"><text fill="#595959" fill-opacity="1" font-family="Century Schoolbook,Century Schoolbook_MSFontService,sans-serif" font-style="normal" font-variant="normal" font-weight="400" font-stretch="normal" font-size="41" text-anchor="start" direction="ltr" writing-mode="lr-tb" unicode-bidi="normal" text-decoration="none" transform="matrix(1 0 0 1 1309.5 1703)">0.00</text></g><g clip-path="url(#clip9)"><text fill="#595959" fill-opacity="1" font-family="Century Schoolbook,Century Schoolbook_MSFontService,sans-serif" font-style="normal" font-variant="normal" font-weight="400" font-stretch="normal" font-size="41" text-anchor="start" direction="ltr" writing-mode="lr-tb" unicode-bidi="normal" text-decoration="none" transform="matrix(1 0 0 1 1309.5 1507)">1.00</text></g><g clip-path="url(#clip10)"><text fill="#595959" fill-opacity="1" font-family="Century Schoolbook,Century Schoolbook_MSFontService,sans-serif" font-style="normal" font-variant="normal" font-weight="400" font-stretch="normal" font-size="41" text-anchor="start" direction="ltr" writing-mode="lr-tb" unicode-bidi="normal" text-decoration="none" transform="matrix(1 0 0 1 1309.5 1311)">2.00</text></g><g clip-path="url(#clip11)"><text fill="#595959" fill-opacity="1" font-family="Century Schoolbook,Century Schoolbook_MSFontService,sans-serif" font-style="normal" font-variant="normal" font-weight="400" font-stretch="normal" font-size="41" text-anchor="start" direction="ltr" writing-mode="lr-tb" unicode-bidi="normal" text-decoration="none" transform="matrix(1 0 0 1 1309.5 1115)">3.00</text></g><g clip-path="url(#clip12)"><text fill="#595959" fill-opacity="1" font-family="Century Schoolbook,Century Schoolbook_MSFontService,sans-serif" font-style="normal" font-variant="normal" font-weight="400" font-stretch="normal" font-size="41" text-anchor="start" direction="ltr" writing-mode="lr-tb" unicode-bidi="normal" text-decoration="none" transform="matrix(1 0 0 1 1309.5 919)">4.00</text></g><g clip-path="url(#clip13)"><text fill="#595959" fill-opacity="1" font-family="Century Schoolbook,Century Schoolbook_MSFontService,sans-serif" font-style="normal" font-variant="normal" font-weight="400" font-stretch="normal" font-size="41" text-anchor="start" direction="ltr" writing-mode="lr-tb" unicode-bidi="normal" text-decoration="none" transform="matrix(1 0 0 1 1309.5 723)">5.00</text></g><g clip-path="url(#clip14)"><text fill="#595959" fill-opacity="1" font-family="Century Schoolbook,Century Schoolbook_MSFontService,sans-serif" font-style="normal" font-variant="normal" font-weight="400" font-stretch="normal" font-size="41" text-anchor="start" direction="ltr" writing-mode="lr-tb" unicode-bidi="normal" text-decoration="none" transform="matrix(1 0 0 1 1309.5 527)">6.00</text></g><g clip-path="url(#clip15)"><text fill="#595959" fill-opacity="1" font-family="Century Schoolbook,Century Schoolbook_MSFontService,sans-serif" font-style="normal" font-variant="normal" font-weight="400" font-stretch="normal" font-size="41" text-anchor="start" direction="ltr" writing-mode="lr-tb" unicode-bidi="normal" text-decoration="none" transform="matrix(1 0 0 1 1382.23 1757)">1960</text></g><g clip-path="url(#clip16)"><text fill="#595959" fill-opacity="1" font-family="Century Schoolbook,Century Schoolbook_MSFontService,sans-serif" font-style="normal" font-variant="normal" font-weight="400" font-stretch="normal" font-size="41" text-anchor="start" direction="ltr" writing-mode="lr-tb" unicode-bidi="normal" text-decoration="none" transform="matrix(1 0 0 1 1748.73 1757)">1970</text></g><g clip-path="url(#clip17)"><text fill="#595959" fill-opacity="1" font-family="Century Schoolbook,Century Schoolbook_MSFontService,sans-serif" font-style="normal" font-variant="normal" font-weight="400" font-stretch="normal" font-size="41" text-anchor="start" direction="ltr" writing-mode="lr-tb" unicode-bidi="normal" text-decoration="none" transform="matrix(1 0 0 1 2115.23 1757)">1980</text></g><g clip-path="url(#clip18)"><text fill="#595959" fill-opacity="1" font-family="Century Schoolbook,Century Schoolbook_MSFontService,sans-serif" font-style="normal" font-variant="normal" font-weight="400" font-stretch="normal" font-size="41" text-anchor="start" direction="ltr" writing-mode="lr-tb" unicode-bidi="normal" text-decoration="none" transform="matrix(1 0 0 1 2481.74 1757)">1990</text></g><g clip-path="url(#clip19)"><text fill="#595959" fill-opacity="1" font-family="Century Schoolbook,Century Schoolbook_MSFontService,sans-serif" font-style="normal" font-variant="normal" font-weight="400" font-stretch="normal" font-size="41" text-anchor="start" direction="ltr" writing-mode="lr-tb" unicode-bidi="normal" text-decoration="none" transform="matrix(1 0 0 1 2848.24 1757)">2000</text></g><g clip-path="url(#clip20)"><text fill="#595959" fill-opacity="1" font-family="Century Schoolbook,Century Schoolbook_MSFontService,sans-serif" font-style="normal" font-variant="normal" font-weight="400" font-stretch="normal" font-size="41" text-anchor="start" direction="ltr" writing-mode="lr-tb" unicode-bidi="normal" text-decoration="none" transform="matrix(1 0 0 1 3214.74 1757)">2010</text></g><g clip-path="url(#clip21)"><text fill="#595959" fill-opacity="1" font-family="Century Schoolbook,Century Schoolbook_MSFontService,sans-serif" font-style="normal" font-variant="normal" font-weight="400" font-stretch="normal" font-size="41" text-anchor="start" direction="ltr" writing-mode="lr-tb" unicode-bidi="normal" text-decoration="none" transform="matrix(1 0 0 1 3581.25 1757)">2020</text></g><g clip-path="url(#clip22)"><text fill="#595959" fill-opacity="1" font-family="Century Schoolbook,Century Schoolbook_MSFontService,sans-serif" font-style="normal" font-variant="normal" font-weight="400" font-stretch="normal" font-size="41" text-anchor="start" direction="ltr" writing-mode="lr-tb" unicode-bidi="normal" text-decoration="none" transform="matrix(1 0 0 1 3947.75 1757)">2030</text></g><g clip-path="url(#clip23)"><text fill="#595959" fill-opacity="1" font-family="Century Schoolbook,Century Schoolbook_MSFontService,sans-serif" font-style="normal" font-variant="normal" font-weight="400" font-stretch="normal" font-size="46" text-anchor="start" direction="ltr" writing-mode="lr-tb" unicode-bidi="normal" text-decoration="none" transform="matrix(6.12323e-17 -1 1 6.12323e-17 1285.72 1644)">Percentage change in atmospheric CO</text></g><g clip-path="url(#clip24)"><text fill="#595959" fill-opacity="1" font-family="Century Schoolbook,Century Schoolbook_MSFontService,sans-serif" font-style="normal" font-variant="normal" font-weight="400" font-stretch="normal" font-size="31" text-anchor="start" direction="ltr" writing-mode="lr-tb" unicode-bidi="normal" text-decoration="none" transform="matrix(6.12323e-17 -1 1 6.12323e-17 1295.71 836)">2 </text></g><g clip-path="url(#clip25)"><text fill="#595959" fill-opacity="1" font-family="Century Schoolbook,Century Schoolbook_MSFontService,sans-serif" font-style="normal" font-variant="normal" font-weight="400" font-stretch="normal" font-size="46" text-anchor="start" direction="ltr" writing-mode="lr-tb" unicode-bidi="normal" text-decoration="none" transform="matrix(6.12323e-17 -1 1 6.12323e-17 1285.72 811)">levels / ppm </text></g><g clip-path="url(#clip26)"><text fill="#595959" fill-opacity="1" font-family="Century Schoolbook,Century Schoolbook_MSFontService,sans-serif" font-style="normal" font-variant="normal" font-weight="400" font-stretch="normal" font-size="46" text-anchor="start" direction="ltr" writing-mode="lr-tb" unicode-bidi="normal" text-decoration="none" transform="matrix(1 0 0 1 2527.1 1825)">Decade End Year</text></g><g clip-path="url(#clip27)"><text fill="#595959" fill-opacity="1" font-family="Century Schoolbook,Century Schoolbook_MSFontService,sans-serif" font-style="normal" font-variant="normal" font-weight="400" font-stretch="normal" font-size="64" text-anchor="start" direction="ltr" writing-mode="lr-tb" unicode-bidi="normal" text-decoration="none" transform="matrix(1 0 0 1 1600.39 442)">Decadal Percentage Change in Atmospheric CO</text></g><g clip-path="url(#clip28)"><text fill="#595959" fill-opacity="1" font-family="Century Schoolbook,Century Schoolbook_MSFontService,sans-serif" font-style="normal" font-variant="normal" font-weight="400" font-stretch="normal" font-size="43" text-anchor="start" direction="ltr" writing-mode="lr-tb" unicode-bidi="normal" text-decoration="none" transform="matrix(1 0 0 1 3016.85 457)">2</text></g><g clip-path="url(#clip29)"><text fill="#595959" fill-opacity="1" font-family="Century Schoolbook,Century Schoolbook_MSFontService,sans-serif" font-style="normal" font-variant="normal" font-weight="400" font-stretch="normal" font-size="64" text-anchor="start" direction="ltr" writing-mode="lr-tb" unicode-bidi="normal" text-decoration="none" transform="matrix(1 0 0 1 3052.53 442)">Levels, 1968</text></g><g clip-path="url(#clip30)"><text fill="#595959" fill-opacity="1" font-family="Century Schoolbook,Century Schoolbook_MSFontService,sans-serif" font-style="normal" font-variant="normal" font-weight="400" font-stretch="normal" font-size="64" text-anchor="start" direction="ltr" writing-mode="lr-tb" unicode-bidi="normal" text-decoration="none" transform="matrix(1 0 0 1 3422.26 442)">-</text></g><g clip-path="url(#clip31)"><text fill="#595959" fill-opacity="1" font-family="Century Schoolbook,Century Schoolbook_MSFontService,sans-serif" font-style="normal" font-variant="normal" font-weight="400" font-stretch="normal" font-size="64" text-anchor="start" direction="ltr" writing-mode="lr-tb" unicode-bidi="normal" text-decoration="none" transform="matrix(1 0 0 1 3443.62 442)">Present</text></g><rect x="1183.5" y="345.5" width="2907" height="1547" stroke="#D9D9D9" stroke-width="3.4375" stroke-linecap="butt" stroke-linejoin="round" stroke-miterlimit="10" stroke-opacity="1" fill="none"/></g></svg>
