<svg width="3222" height="1553" xmlns="http://www.w3.org/2000/svg" xmlns:xlink="http://www.w3.org/1999/xlink" xml:space="preserve" overflow="hidden"><defs><clipPath id="clip0"><rect x="1668" y="880" width="3222" height="1553"/></clipPath><clipPath id="clip1"><rect x="1670" y="883" width="3215" height="1547"/></clipPath><clipPath id="clip2"><rect x="1670" y="883" width="3215" height="1547"/></clipPath><clipPath id="clip3"><rect x="1670" y="883" width="3215" height="1547"/></clipPath><clipPath id="clip4"><rect x="1670" y="883" width="3215" height="1547"/></clipPath><clipPath id="clip5"><rect x="1670" y="883" width="3215" height="1547"/></clipPath><clipPath id="clip6"><rect x="1938" y="1173" width="2854" height="1058"/></clipPath><clipPath id="clip7"><rect x="1670" y="883" width="3215" height="1547"/></clipPath><clipPath id="clip8"><rect x="1670" y="883" width="3215" height="1547"/></clipPath><clipPath id="clip9"><rect x="1670" y="883" width="3215" height="1547"/></clipPath><clipPath id="clip10"><rect x="1670" y="883" width="3215" height="1547"/></clipPath><clipPath id="clip11"><rect x="1670" y="883" width="3215" height="1547"/></clipPath><clipPath id="clip12"><rect x="1670" y="883" width="3215" height="1547"/></clipPath><clipPath id="clip13"><rect x="1670" y="883" width="3215" height="1547"/></clipPath><clipPath id="clip14"><rect x="1670" y="883" width="3215" height="1547"/></clipPath><clipPath id="clip15"><rect x="1670" y="883" width="3215" height="1547"/></clipPath><clipPath id="clip16"><rect x="1670" y="883" width="3215" height="1547"/></clipPath><clipPath id="clip17"><rect x="1670" y="883" width="3215" height="1547"/></clipPath><clipPath id="clip18"><rect x="1670" y="883" width="3215" height="1547"/></clipPath><clipPath id="clip19"><rect x="1670" y="883" width="3215" height="1547"/></clipPath><clipPath id="clip20"><rect x="1670" y="883" width="3215" height="1547"/></clipPath><clipPath id="clip21"><rect x="1670" y="883" width="3215" height="1547"/></clipPath><clipPath id="clip22"><rect x="1670" y="883" width="3215" height="1547"/></clipPath><clipPath id="clip23"><rect x="1670" y="883" width="3215" height="1547"/></clipPath><clipPath id="clip24"><rect x="1670" y="883" width="3215" height="1547"/></clipPath><clipPath id="clip25"><rect x="1670" y="883" width="3215" height="1547"/></clipPath><clipPath id="clip26"><rect x="1670" y="883" width="3215" height="1547"/></clipPath><clipPath id="clip27"><rect x="1670" y="883" width="3215" height="1547"/></clipPath><clipPath id="clip28"><rect x="1670" y="883" width="3215" height="1547"/></clipPath><clipPath id="clip29"><rect x="1670" y="883" width="3215" height="1547"/></clipPath><clipPath id="clip30"><rect x="1670" y="883" width="3215" height="1547"/></clipPath><clipPath id="clip31"><rect x="1670" y="883" width="3215" height="1547"/></clipPath><clipPath id="clip32"><rect x="1670" y="883" width="3215" height="1547"/></clipPath><clipPath id="clip33"><rect x="1670" y="883" width="3215" height="1547"/></clipPath><clipPath id="clip34"><rect x="1670" y="883" width="3215" height="1547"/></clipPath><clipPath id="clip35"><rect x="1670" y="883" width="3215" height="1547"/></clipPath><clipPath id="clip36"><rect x="1670" y="883" width="3215" height="1547"/></clipPath><clipPath id="clip37"><rect x="1670" y="883" width="3215" height="1547"/></clipPath><clipPath id="clip38"><rect x="1670" y="883" width="3215" height="1547"/></clipPath><clipPath id="clip39"><rect x="1670" y="883" width="3215" height="1547"/></clipPath><clipPath id="clip40"><rect x="1670" y="883" width="3215" height="1547"/></clipPath><clipPath id="clip41"><rect x="1670" y="883" width="3215" height="1547"/></clipPath><clipPath id="clip42"><rect x="1670" y="883" width="3215" height="1547"/></clipPath><clipPath id="clip43"><rect x="1670" y="883" width="3215" height="1547"/></clipPath><clipPath id="clip44"><rect x="1670" y="883" width="3215" height="1547"/></clipPath><clipPath id="clip45"><rect x="1670" y="883" width="3215" height="1547"/></clipPath><clipPath id="clip46"><rect x="1670" y="883" width="3215" height="1547"/></clipPath></defs><g clip-path="url(#clip0)" transform="translate(-1668 -880)"><rect x="1671" y="884" width="3215" height="1547" fill="#FFFFFF" fill-opacity="1"/><g clip-path="url(#clip1)"><path d="M1938.5 2052.57 4789.5 2052.57M1938.5 1876.56 4789.5 1876.56M1938.5 1700.56 4789.5 1700.56M1938.5 1524.55 4789.5 1524.55M1938.5 1349.54 4789.5 1349.54M1938.5 1173.5 4789.5 1173.5" stroke="#D9D9D9" stroke-width="3.4375" stroke-linecap="butt" stroke-linejoin="round" stroke-miterlimit="10" stroke-opacity="1" fill="none" fill-rule="nonzero"/></g><g clip-path="url(#clip2)"><path d="M2466.58 1173.5 2466.58 2227.5M2994.6 1173.5 2994.6 2227.5M3522.62 1173.5 3522.62 2227.5M4050.63 1173.5 4050.63 2227.5M4578.5 1173.5 4578.5 2227.5" stroke="#D9D9D9" stroke-width="3.4375" stroke-linecap="butt" stroke-linejoin="round" stroke-miterlimit="10" stroke-opacity="1" fill="none" fill-rule="nonzero"/></g><g clip-path="url(#clip3)"><rect x="1938.5" y="1173.5" width="2851" height="1054" stroke="#D0CECE" stroke-width="3.4375" stroke-linecap="butt" stroke-linejoin="round" stroke-miterlimit="10" stroke-opacity="1" fill="none"/></g><g clip-path="url(#clip4)"><path d="M0 0 0.000360892 1054" stroke="#BFBFBF" stroke-width="3.4375" stroke-linecap="butt" stroke-linejoin="round" stroke-miterlimit="10" stroke-opacity="1" fill="none" fill-rule="evenodd" transform="matrix(1 0 0 -1 1938.5 2227.5)"/></g><g clip-path="url(#clip5)"><path d="M1938.5 2227.5 4789.5 2227.5" stroke="#BFBFBF" stroke-width="3.4375" stroke-linecap="butt" stroke-linejoin="round" stroke-miterlimit="10" stroke-opacity="1" fill="none" fill-rule="evenodd"/></g><g clip-path="url(#clip6)"><path d="M1938 1800 4790 1800" stroke="#ED7D31" stroke-width="2.29167" stroke-linecap="butt" stroke-linejoin="round" stroke-miterlimit="10" stroke-opacity="1" fill="none" fill-rule="nonzero"/></g><g clip-path="url(#clip7)"><path d="M1950 1525.5C1950 1531.85 1944.85 1537 1938.5 1537 1932.15 1537 1927 1531.85 1927 1525.5 1927 1519.15 1932.15 1514 1938.5 1514 1944.85 1514 1950 1519.15 1950 1525.5Z" fill="#70AD47" fill-rule="nonzero" fill-opacity="1"/></g><g clip-path="url(#clip8)"><path d="M2003 1796.5C2003 1802.85 1997.85 1808 1991.5 1808 1985.15 1808 1980 1802.85 1980 1796.5 1980 1790.15 1985.15 1785 1991.5 1785 1997.85 1785 2003 1790.15 2003 1796.5Z" fill="#70AD47" fill-rule="nonzero" fill-opacity="1"/></g><g clip-path="url(#clip9)"><path d="M2055.75 1971.17C2055.75 1977.52 2050.6 1982.67 2044.25 1982.67 2037.9 1982.67 2032.75 1977.52 2032.75 1971.17 2032.75 1964.81 2037.9 1959.67 2044.25 1959.67 2050.6 1959.67 2055.75 1964.81 2055.75 1971.17Z" fill="#4472C4" fill-rule="nonzero" fill-opacity="1"/><path d="M2213.75 2060.17C2213.75 2066.52 2208.6 2071.67 2202.25 2071.67 2195.9 2071.67 2190.75 2066.52 2190.75 2060.17 2190.75 2053.81 2195.9 2048.67 2202.25 2048.67 2208.6 2048.67 2213.75 2053.81 2213.75 2060.17Z" fill="#4472C4" fill-rule="nonzero" fill-opacity="1"/><path d="M2266.75 1915.17C2266.75 1921.52 2261.6 1926.67 2255.25 1926.67 2248.9 1926.67 2243.75 1921.52 2243.75 1915.17 2243.75 1908.81 2248.9 1903.67 2255.25 1903.67 2261.6 1903.67 2266.75 1908.81 2266.75 1915.17Z" fill="#4472C4" fill-rule="nonzero" fill-opacity="1"/><path d="M2319.75 1943.17C2319.75 1949.52 2314.6 1954.67 2308.25 1954.67 2301.9 1954.67 2296.75 1949.52 2296.75 1943.17 2296.75 1936.82 2301.9 1931.67 2308.25 1931.67 2314.6 1931.67 2319.75 1936.82 2319.75 1943.17Z" fill="#4472C4" fill-rule="nonzero" fill-opacity="1"/><path d="M2477.75 1821.17C2477.75 1827.52 2472.6 1832.67 2466.25 1832.67 2459.9 1832.67 2454.75 1827.52 2454.75 1821.17 2454.75 1814.82 2459.9 1809.67 2466.25 1809.67 2472.6 1809.67 2477.75 1814.82 2477.75 1821.17Z" fill="#4472C4" fill-rule="nonzero" fill-opacity="1"/><path d="M2583.75 1862.17C2583.75 1868.52 2578.6 1873.67 2572.25 1873.67 2565.9 1873.67 2560.75 1868.52 2560.75 1862.17 2560.75 1855.81 2565.9 1850.67 2572.25 1850.67 2578.6 1850.67 2583.75 1855.81 2583.75 1862.17Z" fill="#4472C4" fill-rule="nonzero" fill-opacity="1"/><path d="M2636.75 1882.17C2636.75 1888.52 2631.6 1893.67 2625.25 1893.67 2618.9 1893.67 2613.75 1888.52 2613.75 1882.17 2613.75 1875.81 2618.9 1870.67 2625.25 1870.67 2631.6 1870.67 2636.75 1875.81 2636.75 1882.17Z" fill="#4472C4" fill-rule="nonzero" fill-opacity="1"/><path d="M2689.75 1809.17C2689.75 1815.52 2684.6 1820.67 2678.25 1820.67 2671.9 1820.67 2666.75 1815.52 2666.75 1809.17 2666.75 1802.82 2671.9 1797.67 2678.25 1797.67 2684.6 1797.67 2689.75 1802.82 2689.75 1809.17Z" fill="#4472C4" fill-rule="nonzero" fill-opacity="1"/><path d="M2794.75 1874.17C2794.75 1880.52 2789.6 1885.67 2783.25 1885.67 2776.9 1885.67 2771.75 1880.52 2771.75 1874.17 2771.75 1867.81 2776.9 1862.67 2783.25 1862.67 2789.6 1862.67 2794.75 1867.81 2794.75 1874.17Z" fill="#4472C4" fill-rule="nonzero" fill-opacity="1"/><path d="M2847.75 1937.17C2847.75 1943.52 2842.6 1948.67 2836.25 1948.67 2829.9 1948.67 2824.75 1943.52 2824.75 1937.17 2824.75 1930.81 2829.9 1925.67 2836.25 1925.67 2842.6 1925.67 2847.75 1930.81 2847.75 1937.17Z" fill="#4472C4" fill-rule="nonzero" fill-opacity="1"/><path d="M2900.75 1844.17C2900.75 1850.52 2895.6 1855.67 2889.25 1855.67 2882.9 1855.67 2877.75 1850.52 2877.75 1844.17 2877.75 1837.82 2882.9 1832.67 2889.25 1832.67 2895.6 1832.67 2900.75 1837.82 2900.75 1844.17Z" fill="#4472C4" fill-rule="nonzero" fill-opacity="1"/><path d="M3005.75 1902.17C3005.75 1908.52 3000.6 1913.67 2994.25 1913.67 2987.9 1913.67 2982.75 1908.52 2982.75 1902.17 2982.75 1895.82 2987.9 1890.67 2994.25 1890.67 3000.6 1890.67 3005.75 1895.82 3005.75 1902.17Z" fill="#4472C4" fill-rule="nonzero" fill-opacity="1"/><path d="M3058.75 1959.17C3058.75 1965.52 3053.6 1970.67 3047.25 1970.67 3040.9 1970.67 3035.75 1965.52 3035.75 1959.17 3035.75 1952.81 3040.9 1947.67 3047.25 1947.67 3053.6 1947.67 3058.75 1952.81 3058.75 1959.17Z" fill="#4472C4" fill-rule="nonzero" fill-opacity="1"/><path d="M3111.75 1948.17C3111.75 1954.52 3106.6 1959.67 3100.25 1959.67 3093.9 1959.67 3088.75 1954.52 3088.75 1948.17 3088.75 1941.81 3093.9 1936.67 3100.25 1936.67 3106.6 1936.67 3111.75 1941.81 3111.75 1948.17Z" fill="#4472C4" fill-rule="nonzero" fill-opacity="1"/><path d="M3164.75 2038.17C3164.75 2044.52 3159.6 2049.67 3153.25 2049.67 3146.9 2049.67 3141.75 2044.52 3141.75 2038.17 3141.75 2031.81 3146.9 2026.67 3153.25 2026.67 3159.6 2026.67 3164.75 2031.81 3164.75 2038.17Z" fill="#4472C4" fill-rule="nonzero" fill-opacity="1"/><path d="M3217.75 2071.17C3217.75 2077.52 3212.6 2082.67 3206.25 2082.67 3199.9 2082.67 3194.75 2077.52 3194.75 2071.17 3194.75 2064.81 3199.9 2059.67 3206.25 2059.67 3212.6 2059.67 3217.75 2064.81 3217.75 2071.17Z" fill="#4472C4" fill-rule="nonzero" fill-opacity="1"/><path d="M3375.75 1802.17C3375.75 1808.52 3370.6 1813.67 3364.25 1813.67 3357.9 1813.67 3352.75 1808.52 3352.75 1802.17 3352.75 1795.82 3357.9 1790.67 3364.25 1790.67 3370.6 1790.67 3375.75 1795.82 3375.75 1802.17Z" fill="#4472C4" fill-rule="nonzero" fill-opacity="1"/><path d="M3428.75 1963.17C3428.75 1969.52 3423.6 1974.67 3417.25 1974.67 3410.9 1974.67 3405.75 1969.52 3405.75 1963.17 3405.75 1956.82 3410.9 1951.67 3417.25 1951.67 3423.6 1951.67 3428.75 1956.82 3428.75 1963.17Z" fill="#4472C4" fill-rule="nonzero" fill-opacity="1"/><path d="M3533.75 1834.17C3533.75 1840.52 3528.6 1845.67 3522.25 1845.67 3515.9 1845.67 3510.75 1840.52 3510.75 1834.17 3510.75 1827.82 3515.9 1822.67 3522.25 1822.67 3528.6 1822.67 3533.75 1827.82 3533.75 1834.17Z" fill="#4472C4" fill-rule="nonzero" fill-opacity="1"/><path d="M3586.75 1960.17C3586.75 1966.52 3581.6 1971.67 3575.25 1971.67 3568.9 1971.67 3563.75 1966.52 3563.75 1960.17 3563.75 1953.81 3568.9 1948.67 3575.25 1948.67 3581.6 1948.67 3586.75 1953.81 3586.75 1960.17Z" fill="#4472C4" fill-rule="nonzero" fill-opacity="1"/><path d="M3639.75 1857.17C3639.75 1863.52 3634.6 1868.67 3628.25 1868.67 3621.9 1868.67 3616.75 1863.52 3616.75 1857.17 3616.75 1850.82 3621.9 1845.67 3628.25 1845.67 3634.6 1845.67 3639.75 1850.82 3639.75 1857.17Z" fill="#4472C4" fill-rule="nonzero" fill-opacity="1"/><path d="M3797.75 1906.17C3797.75 1912.52 3792.6 1917.67 3786.25 1917.67 3779.9 1917.67 3774.75 1912.52 3774.75 1906.17 3774.75 1899.81 3779.9 1894.67 3786.25 1894.67 3792.6 1894.67 3797.75 1899.81 3797.75 1906.17Z" fill="#4472C4" fill-rule="nonzero" fill-opacity="1"/><path d="M3903.75 1838.17C3903.75 1844.52 3898.6 1849.67 3892.25 1849.67 3885.9 1849.67 3880.75 1844.52 3880.75 1838.17 3880.75 1831.81 3885.9 1826.67 3892.25 1826.67 3898.6 1826.67 3903.75 1831.81 3903.75 1838.17Z" fill="#4472C4" fill-rule="nonzero" fill-opacity="1"/><path d="M3956.75 1877.17C3956.75 1883.52 3951.6 1888.67 3945.25 1888.67 3938.9 1888.67 3933.75 1883.52 3933.75 1877.17 3933.75 1870.82 3938.9 1865.67 3945.25 1865.67 3951.6 1865.67 3956.75 1870.82 3956.75 1877.17Z" fill="#4472C4" fill-rule="nonzero" fill-opacity="1"/><path d="M4009.75 1912.17C4009.75 1918.52 4004.6 1923.67 3998.25 1923.67 3991.9 1923.67 3986.75 1918.52 3986.75 1912.17 3986.75 1905.82 3991.9 1900.67 3998.25 1900.67 4004.6 1900.67 4009.75 1905.82 4009.75 1912.17Z" fill="#4472C4" fill-rule="nonzero" fill-opacity="1"/><path d="M4061.75 1893.17C4061.75 1899.52 4056.6 1904.67 4050.25 1904.67 4043.9 1904.67 4038.75 1899.52 4038.75 1893.17 4038.75 1886.81 4043.9 1881.67 4050.25 1881.67 4056.6 1881.67 4061.75 1886.81 4061.75 1893.17Z" fill="#4472C4" fill-rule="nonzero" fill-opacity="1"/><path d="M4114.75 1775.17C4114.75 1781.52 4109.6 1786.67 4103.25 1786.67 4096.9 1786.67 4091.75 1781.52 4091.75 1775.17 4091.75 1768.81 4096.9 1763.67 4103.25 1763.67 4109.6 1763.67 4114.75 1768.81 4114.75 1775.17Z" fill="#4472C4" fill-rule="nonzero" fill-opacity="1"/><path d="M4167.75 1926.17C4167.75 1932.52 4162.6 1937.67 4156.25 1937.67 4149.9 1937.67 4144.75 1932.52 4144.75 1926.17 4144.75 1919.81 4149.9 1914.67 4156.25 1914.67 4162.6 1914.67 4167.75 1919.81 4167.75 1926.17Z" fill="#4472C4" fill-rule="nonzero" fill-opacity="1"/><path d="M4220.75 1850.17C4220.75 1856.52 4215.6 1861.67 4209.25 1861.67 4202.9 1861.67 4197.75 1856.52 4197.75 1850.17 4197.75 1843.81 4202.9 1838.67 4209.25 1838.67 4215.6 1838.67 4220.75 1843.81 4220.75 1850.17Z" fill="#4472C4" fill-rule="nonzero" fill-opacity="1"/><path d="M4273.75 1771.17C4273.75 1777.52 4268.6 1782.67 4262.25 1782.67 4255.9 1782.67 4250.75 1777.52 4250.75 1771.17 4250.75 1764.82 4255.9 1759.67 4262.25 1759.67 4268.6 1759.67 4273.75 1764.82 4273.75 1771.17Z" fill="#4472C4" fill-rule="nonzero" fill-opacity="1"/><path d="M4325.75 1877.17C4325.75 1883.52 4320.6 1888.67 4314.25 1888.67 4307.9 1888.67 4302.75 1883.52 4302.75 1877.17 4302.75 1870.82 4307.9 1865.67 4314.25 1865.67 4320.6 1865.67 4325.75 1870.82 4325.75 1877.17Z" fill="#4472C4" fill-rule="nonzero" fill-opacity="1"/><path d="M4378.75 1862.17C4378.75 1868.52 4373.6 1873.67 4367.25 1873.67 4360.9 1873.67 4355.75 1868.52 4355.75 1862.17 4355.75 1855.81 4360.9 1850.67 4367.25 1850.67 4373.6 1850.67 4378.75 1855.81 4378.75 1862.17Z" fill="#4472C4" fill-rule="nonzero" fill-opacity="1"/><path d="M4431.75 1660.17C4431.75 1666.52 4426.6 1671.67 4420.25 1671.67 4413.9 1671.67 4408.75 1666.52 4408.75 1660.17 4408.75 1653.82 4413.9 1648.67 4420.25 1648.67 4426.6 1648.67 4431.75 1653.82 4431.75 1660.17Z" fill="#4472C4" fill-rule="nonzero" fill-opacity="1"/><path d="M4484.75 1858.17C4484.75 1864.52 4479.6 1869.67 4473.25 1869.67 4466.9 1869.67 4461.75 1864.52 4461.75 1858.17 4461.75 1851.82 4466.9 1846.67 4473.25 1846.67 4479.6 1846.67 4484.75 1851.82 4484.75 1858.17Z" fill="#4472C4" fill-rule="nonzero" fill-opacity="1"/><path d="M4537.75 1925.17C4537.75 1931.52 4532.6 1936.67 4526.25 1936.67 4519.9 1936.67 4514.75 1931.52 4514.75 1925.17 4514.75 1918.82 4519.9 1913.67 4526.25 1913.67 4532.6 1913.67 4537.75 1918.82 4537.75 1925.17Z" fill="#4472C4" fill-rule="nonzero" fill-opacity="1"/><path d="M4589.75 1776.17C4589.75 1782.52 4584.6 1787.67 4578.25 1787.67 4571.9 1787.67 4566.75 1782.52 4566.75 1776.17 4566.75 1769.82 4571.9 1764.67 4578.25 1764.67 4584.6 1764.67 4589.75 1769.82 4589.75 1776.17Z" fill="#4472C4" fill-rule="nonzero" fill-opacity="1"/><path d="M4642.75 1850.17C4642.75 1856.52 4637.6 1861.67 4631.25 1861.67 4624.9 1861.67 4619.75 1856.52 4619.75 1850.17 4619.75 1843.81 4624.9 1838.67 4631.25 1838.67 4637.6 1838.67 4642.75 1843.81 4642.75 1850.17Z" fill="#4472C4" fill-rule="nonzero" fill-opacity="1"/><path d="M4695.75 1906.17C4695.75 1912.52 4690.6 1917.67 4684.25 1917.67 4677.9 1917.67 4672.75 1912.52 4672.75 1906.17 4672.75 1899.81 4677.9 1894.67 4684.25 1894.67 4690.6 1894.67 4695.75 1899.81 4695.75 1906.17Z" fill="#4472C4" fill-rule="nonzero" fill-opacity="1"/></g><g clip-path="url(#clip10)"><path d="M2108 1766.5C2108 1772.85 2102.85 1778 2096.5 1778 2090.15 1778 2085 1772.85 2085 1766.5 2085 1760.15 2090.15 1755 2096.5 1755 2102.85 1755 2108 1760.15 2108 1766.5Z" fill="#70AD47" fill-rule="nonzero" fill-opacity="1"/></g><g clip-path="url(#clip11)"><path d="M2161 1361.5C2161 1367.85 2155.85 1373 2149.5 1373 2143.15 1373 2138 1367.85 2138 1361.5 2138 1355.15 2143.15 1350 2149.5 1350 2155.85 1350 2161 1355.15 2161 1361.5Z" fill="#70AD47" fill-rule="nonzero" fill-opacity="1"/></g><g clip-path="url(#clip12)"><path d="M2372 1631.5C2372 1637.85 2366.85 1643 2360.5 1643 2354.15 1643 2349 1637.85 2349 1631.5 2349 1625.15 2354.15 1620 2360.5 1620 2366.85 1620 2372 1625.15 2372 1631.5Z" fill="#70AD47" fill-rule="nonzero" fill-opacity="1"/></g><g clip-path="url(#clip13)"><path d="M2425 1754.5C2425 1760.85 2419.85 1766 2413.5 1766 2407.15 1766 2402 1760.85 2402 1754.5 2402 1748.15 2407.15 1743 2413.5 1743 2419.85 1743 2425 1748.15 2425 1754.5Z" fill="#70AD47" fill-rule="nonzero" fill-opacity="1"/></g><g clip-path="url(#clip14)"><path d="M2531 1675.5C2531 1681.85 2525.85 1687 2519.5 1687 2513.15 1687 2508 1681.85 2508 1675.5 2508 1669.15 2513.15 1664 2519.5 1664 2525.85 1664 2531 1669.15 2531 1675.5Z" fill="#70AD47" fill-rule="nonzero" fill-opacity="1"/></g><g clip-path="url(#clip15)"><path d="M2742 1779.5C2742 1785.85 2736.85 1791 2730.5 1791 2724.15 1791 2719 1785.85 2719 1779.5 2719 1773.15 2724.15 1768 2730.5 1768 2736.85 1768 2742 1773.15 2742 1779.5Z" fill="#70AD47" fill-rule="nonzero" fill-opacity="1"/></g><g clip-path="url(#clip16)"><path d="M2953 1687.5C2953 1693.85 2947.85 1699 2941.5 1699 2935.15 1699 2930 1693.85 2930 1687.5 2930 1681.15 2935.15 1676 2941.5 1676 2947.85 1676 2953 1681.15 2953 1687.5Z" fill="#70AD47" fill-rule="nonzero" fill-opacity="1"/></g><g clip-path="url(#clip17)"><path d="M3270 1790.5C3270 1796.85 3264.85 1802 3258.5 1802 3252.15 1802 3247 1796.85 3247 1790.5 3247 1784.15 3252.15 1779 3258.5 1779 3264.85 1779 3270 1784.15 3270 1790.5Z" fill="#70AD47" fill-rule="nonzero" fill-opacity="1"/></g><g clip-path="url(#clip18)"><path d="M3323 1726.5C3323 1732.85 3317.85 1738 3311.5 1738 3305.15 1738 3300 1732.85 3300 1726.5 3300 1720.15 3305.15 1715 3311.5 1715 3317.85 1715 3323 1720.15 3323 1726.5Z" fill="#70AD47" fill-rule="nonzero" fill-opacity="1"/></g><g clip-path="url(#clip19)"><path d="M3481 1513.5C3481 1519.85 3475.85 1525 3469.5 1525 3463.15 1525 3458 1519.85 3458 1513.5 3458 1507.15 3463.15 1502 3469.5 1502 3475.85 1502 3481 1507.15 3481 1513.5Z" fill="#70AD47" fill-rule="nonzero" fill-opacity="1"/></g><g clip-path="url(#clip20)"><path d="M3692 1748.5C3692 1754.85 3686.85 1760 3680.5 1760 3674.15 1760 3669 1754.85 3669 1748.5 3669 1742.15 3674.15 1737 3680.5 1737 3686.85 1737 3692 1742.15 3692 1748.5Z" fill="#70AD47" fill-rule="nonzero" fill-opacity="1"/></g><g clip-path="url(#clip21)"><path d="M3745 1702.5C3745 1708.85 3739.85 1714 3733.5 1714 3727.15 1714 3722 1708.85 3722 1702.5 3722 1696.15 3727.15 1691 3733.5 1691 3739.85 1691 3745 1696.15 3745 1702.5Z" fill="#70AD47" fill-rule="nonzero" fill-opacity="1"/></g><g clip-path="url(#clip22)"><path d="M3851 1800.5C3851 1806.85 3845.85 1812 3839.5 1812 3833.15 1812 3828 1806.85 3828 1800.5 3828 1794.15 3833.15 1789 3839.5 1789 3845.85 1789 3851 1794.15 3851 1800.5Z" fill="#ED7D31" fill-rule="nonzero" fill-opacity="1"/></g><g clip-path="url(#clip23)"><path d="M3839.5 1800.5 3897.63 1661.5 3918.5 1661.5" stroke="#ED7D31" stroke-width="3.4375" stroke-linecap="butt" stroke-linejoin="round" stroke-miterlimit="10" stroke-opacity="1" fill="none" fill-rule="nonzero"/></g><g clip-path="url(#clip24)"><rect x="3918.5" y="1605.5" width="200" height="112" stroke="#ED7D31" stroke-width="3.4375" stroke-linecap="butt" stroke-linejoin="round" stroke-miterlimit="10" stroke-opacity="1" fill="#FFFFFF" fill-opacity="1"/></g><g clip-path="url(#clip25)"><text fill="#404040" fill-opacity="1" font-family="Century Schoolbook,Century Schoolbook_MSFontService,sans-serif" font-style="normal" font-variant="normal" font-weight="400" font-stretch="normal" font-size="41" text-anchor="start" direction="ltr" writing-mode="lr-tb" unicode-bidi="normal" text-decoration="none" transform="matrix(1 0 0 1 3972.64 1653)">2004</text></g><g clip-path="url(#clip26)"><text fill="#404040" fill-opacity="1" font-family="Century Schoolbook,Century Schoolbook_MSFontService,sans-serif" font-style="normal" font-variant="normal" font-weight="400" font-stretch="normal" font-size="41" text-anchor="start" direction="ltr" writing-mode="lr-tb" unicode-bidi="normal" text-decoration="none" transform="matrix(1 0 0 1 3932.35 1702)">β = 1.217</text></g><g clip-path="url(#clip27)"><text fill="#595959" fill-opacity="1" font-family="Century Schoolbook,Century Schoolbook_MSFontService,sans-serif" font-style="normal" font-variant="normal" font-weight="400" font-stretch="normal" font-size="41" text-anchor="start" direction="ltr" writing-mode="lr-tb" unicode-bidi="normal" text-decoration="none" transform="matrix(1 0 0 1 1796.84 2241)">0.000</text></g><g clip-path="url(#clip28)"><text fill="#595959" fill-opacity="1" font-family="Century Schoolbook,Century Schoolbook_MSFontService,sans-serif" font-style="normal" font-variant="normal" font-weight="400" font-stretch="normal" font-size="41" text-anchor="start" direction="ltr" writing-mode="lr-tb" unicode-bidi="normal" text-decoration="none" transform="matrix(1 0 0 1 1796.84 2066)">0.500</text></g><g clip-path="url(#clip29)"><text fill="#595959" fill-opacity="1" font-family="Century Schoolbook,Century Schoolbook_MSFontService,sans-serif" font-style="normal" font-variant="normal" font-weight="400" font-stretch="normal" font-size="41" text-anchor="start" direction="ltr" writing-mode="lr-tb" unicode-bidi="normal" text-decoration="none" transform="matrix(1 0 0 1 1796.84 1890)">1.000</text></g><g clip-path="url(#clip30)"><text fill="#595959" fill-opacity="1" font-family="Century Schoolbook,Century Schoolbook_MSFontService,sans-serif" font-style="normal" font-variant="normal" font-weight="400" font-stretch="normal" font-size="41" text-anchor="start" direction="ltr" writing-mode="lr-tb" unicode-bidi="normal" text-decoration="none" transform="matrix(1 0 0 1 1796.84 1714)">1.500</text></g><g clip-path="url(#clip31)"><text fill="#595959" fill-opacity="1" font-family="Century Schoolbook,Century Schoolbook_MSFontService,sans-serif" font-style="normal" font-variant="normal" font-weight="400" font-stretch="normal" font-size="41" text-anchor="start" direction="ltr" writing-mode="lr-tb" unicode-bidi="normal" text-decoration="none" transform="matrix(1 0 0 1 1796.84 1539)">2.000</text></g><g clip-path="url(#clip32)"><text fill="#595959" fill-opacity="1" font-family="Century Schoolbook,Century Schoolbook_MSFontService,sans-serif" font-style="normal" font-variant="normal" font-weight="400" font-stretch="normal" font-size="41" text-anchor="start" direction="ltr" writing-mode="lr-tb" unicode-bidi="normal" text-decoration="none" transform="matrix(1 0 0 1 1796.84 1363)">2.500</text></g><g clip-path="url(#clip33)"><text fill="#595959" fill-opacity="1" font-family="Century Schoolbook,Century Schoolbook_MSFontService,sans-serif" font-style="normal" font-variant="normal" font-weight="400" font-stretch="normal" font-size="41" text-anchor="start" direction="ltr" writing-mode="lr-tb" unicode-bidi="normal" text-decoration="none" transform="matrix(1 0 0 1 1796.84 1187)">3.000</text></g><g clip-path="url(#clip34)"><text fill="#595959" fill-opacity="1" font-family="Century Schoolbook,Century Schoolbook_MSFontService,sans-serif" font-style="normal" font-variant="normal" font-weight="400" font-stretch="normal" font-size="41" text-anchor="start" direction="ltr" writing-mode="lr-tb" unicode-bidi="normal" text-decoration="none" transform="matrix(1 0 0 1 1892.5 2296)">1968</text></g><g clip-path="url(#clip35)"><text fill="#595959" fill-opacity="1" font-family="Century Schoolbook,Century Schoolbook_MSFontService,sans-serif" font-style="normal" font-variant="normal" font-weight="400" font-stretch="normal" font-size="41" text-anchor="start" direction="ltr" writing-mode="lr-tb" unicode-bidi="normal" text-decoration="none" transform="matrix(1 0 0 1 2420.49 2296)">1978</text></g><g clip-path="url(#clip36)"><text fill="#595959" fill-opacity="1" font-family="Century Schoolbook,Century Schoolbook_MSFontService,sans-serif" font-style="normal" font-variant="normal" font-weight="400" font-stretch="normal" font-size="41" text-anchor="start" direction="ltr" writing-mode="lr-tb" unicode-bidi="normal" text-decoration="none" transform="matrix(1 0 0 1 2948.49 2296)">1988</text></g><g clip-path="url(#clip37)"><text fill="#595959" fill-opacity="1" font-family="Century Schoolbook,Century Schoolbook_MSFontService,sans-serif" font-style="normal" font-variant="normal" font-weight="400" font-stretch="normal" font-size="41" text-anchor="start" direction="ltr" writing-mode="lr-tb" unicode-bidi="normal" text-decoration="none" transform="matrix(1 0 0 1 3476.48 2296)">1998</text></g><g clip-path="url(#clip38)"><text fill="#595959" fill-opacity="1" font-family="Century Schoolbook,Century Schoolbook_MSFontService,sans-serif" font-style="normal" font-variant="normal" font-weight="400" font-stretch="normal" font-size="41" text-anchor="start" direction="ltr" writing-mode="lr-tb" unicode-bidi="normal" text-decoration="none" transform="matrix(1 0 0 1 4004.47 2296)">2008</text></g><g clip-path="url(#clip39)"><text fill="#595959" fill-opacity="1" font-family="Century Schoolbook,Century Schoolbook_MSFontService,sans-serif" font-style="normal" font-variant="normal" font-weight="400" font-stretch="normal" font-size="41" text-anchor="start" direction="ltr" writing-mode="lr-tb" unicode-bidi="normal" text-decoration="none" transform="matrix(1 0 0 1 4532.46 2296)">2018</text></g><g clip-path="url(#clip40)"><text fill="#595959" fill-opacity="1" font-family="Century Schoolbook,Century Schoolbook_MSFontService,sans-serif" font-style="normal" font-variant="normal" font-weight="400" font-stretch="normal" font-size="46" text-anchor="start" direction="ltr" writing-mode="lr-tb" unicode-bidi="normal" text-decoration="none" transform="matrix(6.12323e-17 -1 1 6.12323e-17 1773.05 2004)">Annual Increase Indicator, </text></g><g clip-path="url(#clip41)"><text fill="#595959" fill-opacity="1" font-family="Century Schoolbook,Century Schoolbook_MSFontService,sans-serif" font-style="normal" font-variant="normal" font-weight="400" font-stretch="normal" font-size="46" text-anchor="start" direction="ltr" writing-mode="lr-tb" unicode-bidi="normal" text-decoration="none" transform="matrix(6.12323e-17 -1 1 6.12323e-17 1773.05 1421)">β</text></g><g clip-path="url(#clip42)"><text fill="#595959" fill-opacity="1" font-family="Century Schoolbook,Century Schoolbook_MSFontService,sans-serif" font-style="normal" font-variant="normal" font-weight="400" font-stretch="normal" font-size="46" text-anchor="start" direction="ltr" writing-mode="lr-tb" unicode-bidi="normal" text-decoration="none" transform="matrix(1 0 0 1 3180.19 2363)">Decade End Year</text></g><g clip-path="url(#clip43)"><text fill="#595959" fill-opacity="1" font-family="Century Schoolbook,Century Schoolbook_MSFontService,sans-serif" font-style="normal" font-variant="normal" font-weight="400" font-stretch="normal" font-size="83" text-anchor="start" direction="ltr" writing-mode="lr-tb" unicode-bidi="normal" text-decoration="none" transform="matrix(1 0 0 1 2063.58 999)">Ratio of the final annual increase to the decadal average, over a </text></g><g clip-path="url(#clip44)"><text fill="#595959" fill-opacity="1" font-family="Century Schoolbook,Century Schoolbook_MSFontService,sans-serif" font-style="normal" font-variant="normal" font-weight="400" font-stretch="normal" font-size="83" text-anchor="start" direction="ltr" writing-mode="lr-tb" unicode-bidi="normal" text-decoration="none" transform="matrix(1 0 0 1 2700.83 1098)">series of offset 10</text></g><g clip-path="url(#clip45)"><text fill="#595959" fill-opacity="1" font-family="Century Schoolbook,Century Schoolbook_MSFontService,sans-serif" font-style="normal" font-variant="normal" font-weight="400" font-stretch="normal" font-size="83" text-anchor="start" direction="ltr" writing-mode="lr-tb" unicode-bidi="normal" text-decoration="none" transform="matrix(1 0 0 1 3359.27 1098)">-</text></g><g clip-path="url(#clip46)"><text fill="#595959" fill-opacity="1" font-family="Century Schoolbook,Century Schoolbook_MSFontService,sans-serif" font-style="normal" font-variant="normal" font-weight="400" font-stretch="normal" font-size="83" text-anchor="start" direction="ltr" writing-mode="lr-tb" unicode-bidi="normal" text-decoration="none" transform="matrix(1 0 0 1 3386.75 1098)">year periods</text></g><rect x="1671.5" y="884.5" width="3215" height="1547" stroke="#D9D9D9" stroke-width="3.4375" stroke-linecap="butt" stroke-linejoin="round" stroke-miterlimit="10" stroke-opacity="1" fill="none"/></g></svg>