<svg width="4749" height="2737" xmlns="http://www.w3.org/2000/svg" xmlns:xlink="http://www.w3.org/1999/xlink" xml:space="preserve" overflow="hidden"><defs><clipPath id="clip0"><rect x="6008" y="2497" width="4749" height="2737"/></clipPath><clipPath id="clip1"><rect x="6013" y="2501" width="4738" height="2726"/></clipPath><clipPath id="clip2"><rect x="6013" y="2501" width="4738" height="2726"/></clipPath><clipPath id="clip3"><rect x="6013" y="2501" width="4738" height="2726"/></clipPath><clipPath id="clip4"><rect x="6013" y="2501" width="4738" height="2726"/></clipPath><clipPath id="clip5"><rect x="6013" y="2501" width="4738" height="2726"/></clipPath><clipPath id="clip6"><rect x="6013" y="2501" width="4738" height="2726"/></clipPath><clipPath id="clip7"><rect x="6013" y="2501" width="4738" height="2726"/></clipPath><clipPath id="clip8"><rect x="6013" y="2501" width="4738" height="2726"/></clipPath><clipPath id="clip9"><rect x="6013" y="2501" width="4738" height="2726"/></clipPath><clipPath id="clip10"><rect x="6013" y="2501" width="4738" height="2726"/></clipPath><clipPath id="clip11"><rect x="6013" y="2501" width="4738" height="2726"/></clipPath><clipPath id="clip12"><rect x="6013" y="2501" width="4738" height="2726"/></clipPath><clipPath id="clip13"><rect x="6013" y="2501" width="4738" height="2726"/></clipPath><clipPath id="clip14"><rect x="6013" y="2501" width="4738" height="2726"/></clipPath><clipPath id="clip15"><rect x="6013" y="2501" width="4738" height="2726"/></clipPath><clipPath id="clip16"><rect x="6013" y="2501" width="4738" height="2726"/></clipPath><clipPath id="clip17"><rect x="6013" y="2501" width="4738" height="2726"/></clipPath><clipPath id="clip18"><rect x="6013" y="2501" width="4738" height="2726"/></clipPath><clipPath id="clip19"><rect x="6013" y="2501" width="4738" height="2726"/></clipPath><clipPath id="clip20"><rect x="6013" y="2501" width="4738" height="2726"/></clipPath><clipPath id="clip21"><rect x="6013" y="2501" width="4738" height="2726"/></clipPath><clipPath id="clip22"><rect x="6013" y="2501" width="4738" height="2726"/></clipPath><clipPath id="clip23"><rect x="6013" y="2501" width="4738" height="2726"/></clipPath><clipPath id="clip24"><rect x="6013" y="2501" width="4738" height="2726"/></clipPath><clipPath id="clip25"><rect x="6013" y="2501" width="4738" height="2726"/></clipPath><clipPath id="clip26"><rect x="6013" y="2501" width="4738" height="2726"/></clipPath><clipPath id="clip27"><rect x="6013" y="2501" width="4738" height="2726"/></clipPath><clipPath id="clip28"><rect x="6013" y="2501" width="4738" height="2726"/></clipPath><clipPath id="clip29"><rect x="6013" y="2501" width="4738" height="2726"/></clipPath><clipPath id="clip30"><rect x="6013" y="2501" width="4738" height="2726"/></clipPath><clipPath id="clip31"><rect x="6013" y="2501" width="4738" height="2726"/></clipPath><clipPath id="clip32"><rect x="6013" y="2501" width="4738" height="2726"/></clipPath><clipPath id="clip33"><rect x="6013" y="2501" width="4738" height="2726"/></clipPath><clipPath id="clip34"><rect x="6013" y="2501" width="4738" height="2726"/></clipPath><clipPath id="clip35"><rect x="6013" y="2501" width="4738" height="2726"/></clipPath><clipPath id="clip36"><rect x="6013" y="2501" width="4738" height="2726"/></clipPath><clipPath id="clip37"><rect x="6013" y="2501" width="4738" height="2726"/></clipPath><clipPath id="clip38"><rect x="6013" y="2501" width="4738" height="2726"/></clipPath><clipPath id="clip39"><rect x="6013" y="2501" width="4738" height="2726"/></clipPath><clipPath id="clip40"><rect x="6013" y="2501" width="4738" height="2726"/></clipPath><clipPath id="clip41"><rect x="6013" y="2501" width="4738" height="2726"/></clipPath><clipPath id="clip42"><rect x="6013" y="2501" width="4738" height="2726"/></clipPath></defs><g clip-path="url(#clip0)" transform="translate(-6008 -2497)"><rect x="6013" y="2501" width="4738" height="2727" fill="#FFFFFF" fill-opacity="1"/><g clip-path="url(#clip1)"><path d="M6359.5 4763.66 10642.5 4763.66M6359.5 4556.65 10642.5 4556.65M6359.5 4349.64 10642.5 4349.64M6359.5 4142.64 10642.5 4142.64M6359.5 3935.63 10642.5 3935.63M6359.5 3728.62 10642.5 3728.62M6359.5 3521.62 10642.5 3521.62M6359.5 3314.61 10642.5 3314.61M6359.5 3107.6 10642.5 3107.6M6359.5 2900.5 10642.5 2900.5" stroke="#D9D9D9" stroke-width="3.4375" stroke-linecap="butt" stroke-linejoin="round" stroke-miterlimit="10" stroke-opacity="1" fill="none" fill-rule="nonzero"/></g><g clip-path="url(#clip2)"><path d="M6971.73 2900.5 6971.73 4970.5M7583.75 2900.5 7583.75 4970.5M8194.77 2900.5 8194.77 4970.5M8806.79 2900.5 8806.79 4970.5M9418.81 2900.5 9418.81 4970.5M10030.8 2900.5 10030.8 4970.5M10642.5 2900.5 10642.5 4970.5" stroke="#D9D9D9" stroke-width="3.4375" stroke-linecap="butt" stroke-linejoin="round" stroke-miterlimit="10" stroke-opacity="1" fill="none" fill-rule="nonzero"/></g><g clip-path="url(#clip3)"><path d="M0 0 0.000360892 2070" stroke="#BFBFBF" stroke-width="3.4375" stroke-linecap="butt" stroke-linejoin="round" stroke-miterlimit="10" stroke-opacity="1" fill="none" fill-rule="evenodd" transform="matrix(1 0 0 -1 6359.5 4970.5)"/></g><g clip-path="url(#clip4)"><path d="M6359.5 4970.5 10642.5 4970.5" stroke="#BFBFBF" stroke-width="3.4375" stroke-linecap="butt" stroke-linejoin="round" stroke-miterlimit="10" stroke-opacity="1" fill="none" fill-rule="evenodd"/></g><g clip-path="url(#clip5)"><path d="M10043 3073.68C10043 3080.03 10037.9 3085.18 10031.5 3085.18 10025.2 3085.18 10020 3080.03 10020 3073.68 10020 3067.33 10025.2 3062.18 10031.5 3062.18 10037.9 3062.18 10043 3067.33 10043 3073.68Z" fill="#4472C4" fill-rule="nonzero" fill-opacity="1"/><path d="M9982.04 3098.68C9982.04 3105.03 9976.89 3110.18 9970.54 3110.18 9964.19 3110.18 9959.04 3105.03 9959.04 3098.68 9959.04 3092.33 9964.19 3087.18 9970.54 3087.18 9976.89 3087.18 9982.04 3092.33 9982.04 3098.68Z" fill="#4472C4" fill-rule="nonzero" fill-opacity="1"/><path d="M9859.04 3118.68C9859.04 3125.03 9853.89 3130.18 9847.54 3130.18 9841.19 3130.18 9836.04 3125.03 9836.04 3118.68 9836.04 3112.33 9841.19 3107.18 9847.54 3107.18 9853.89 3107.18 9859.04 3112.33 9859.04 3118.68Z" fill="#4472C4" fill-rule="nonzero" fill-opacity="1"/><path d="M9798.04 3122.68C9798.04 3129.03 9792.89 3134.18 9786.54 3134.18 9780.19 3134.18 9775.04 3129.03 9775.04 3122.68 9775.04 3116.33 9780.19 3111.18 9786.54 3111.18 9792.89 3111.18 9798.04 3116.33 9798.04 3122.68Z" fill="#4472C4" fill-rule="nonzero" fill-opacity="1"/><path d="M10104 3155.68C10104 3162.03 10098.9 3167.18 10092.5 3167.18 10086.2 3167.18 10081 3162.03 10081 3155.68 10081 3149.33 10086.2 3144.18 10092.5 3144.18 10098.9 3144.18 10104 3149.33 10104 3155.68Z" fill="#4472C4" fill-rule="nonzero" fill-opacity="1"/><path d="M9920.04 3221.68C9920.04 3228.03 9914.89 3233.18 9908.54 3233.18 9902.19 3233.18 9897.04 3228.03 9897.04 3221.68 9897.04 3215.33 9902.19 3210.18 9908.54 3210.18 9914.89 3210.18 9920.04 3215.33 9920.04 3221.68Z" fill="#4472C4" fill-rule="nonzero" fill-opacity="1"/><path d="M9614.04 3401.68C9614.04 3408.03 9608.89 3413.18 9602.54 3413.18 9596.19 3413.18 9591.04 3408.03 9591.04 3401.68 9591.04 3395.33 9596.19 3390.18 9602.54 3390.18 9608.89 3390.18 9614.04 3395.33 9614.04 3401.68Z" fill="#4472C4" fill-rule="nonzero" fill-opacity="1"/><path d="M9737.04 3414.68C9737.04 3421.03 9731.89 3426.18 9725.54 3426.18 9719.19 3426.18 9714.04 3421.03 9714.04 3414.68 9714.04 3408.33 9719.19 3403.18 9725.54 3403.18 9731.89 3403.18 9737.04 3408.33 9737.04 3414.68Z" fill="#4472C4" fill-rule="nonzero" fill-opacity="1"/><path d="M9676.04 3426.68C9676.04 3433.03 9670.89 3438.18 9664.54 3438.18 9658.19 3438.18 9653.04 3433.03 9653.04 3426.68 9653.04 3420.33 9658.19 3415.18 9664.54 3415.18 9670.89 3415.18 9676.04 3420.33 9676.04 3426.68Z" fill="#4472C4" fill-rule="nonzero" fill-opacity="1"/><path d="M9186.04 3469.68C9186.04 3476.03 9180.89 3481.18 9174.54 3481.18 9168.19 3481.18 9163.04 3476.03 9163.04 3469.68 9163.04 3463.33 9168.19 3458.18 9174.54 3458.18 9180.89 3458.18 9186.04 3463.33 9186.04 3469.68Z" fill="#4472C4" fill-rule="nonzero" fill-opacity="1"/><path d="M9431.04 3481.68C9431.04 3488.03 9425.89 3493.18 9419.54 3493.18 9413.19 3493.18 9408.04 3488.03 9408.04 3481.68 9408.04 3475.33 9413.19 3470.18 9419.54 3470.18 9425.89 3470.18 9431.04 3475.33 9431.04 3481.68Z" fill="#4472C4" fill-rule="nonzero" fill-opacity="1"/><path d="M9125.04 3504.68C9125.04 3511.03 9119.89 3516.18 9113.54 3516.18 9107.19 3516.18 9102.04 3511.03 9102.04 3504.68 9102.04 3498.33 9107.19 3493.18 9113.54 3493.18 9119.89 3493.18 9125.04 3498.33 9125.04 3504.68Z" fill="#4472C4" fill-rule="nonzero" fill-opacity="1"/><path d="M9247.04 3506.68C9247.04 3513.03 9241.89 3518.18 9235.54 3518.18 9229.19 3518.18 9224.04 3513.03 9224.04 3506.68 9224.04 3500.33 9229.19 3495.18 9235.54 3495.18 9241.89 3495.18 9247.04 3500.33 9247.04 3506.68Z" fill="#4472C4" fill-rule="nonzero" fill-opacity="1"/><path d="M9309.04 3543.68C9309.04 3550.03 9303.89 3555.18 9297.54 3555.18 9291.19 3555.18 9286.04 3550.03 9286.04 3543.68 9286.04 3537.33 9291.19 3532.18 9297.54 3532.18 9303.89 3532.18 9309.04 3537.33 9309.04 3543.68Z" fill="#4472C4" fill-rule="nonzero" fill-opacity="1"/><path d="M9553.04 3549.68C9553.04 3556.03 9547.89 3561.18 9541.54 3561.18 9535.19 3561.18 9530.04 3556.03 9530.04 3549.68 9530.04 3543.33 9535.19 3538.18 9541.54 3538.18 9547.89 3538.18 9553.04 3543.33 9553.04 3549.68Z" fill="#4472C4" fill-rule="nonzero" fill-opacity="1"/><path d="M9492.04 3576.68C9492.04 3583.03 9486.89 3588.18 9480.54 3588.18 9474.19 3588.18 9469.04 3583.03 9469.04 3576.68 9469.04 3570.33 9474.19 3565.18 9480.54 3565.18 9486.89 3565.18 9492.04 3570.33 9492.04 3576.68Z" fill="#4472C4" fill-rule="nonzero" fill-opacity="1"/><path d="M9370.04 3582.68C9370.04 3589.03 9364.89 3594.18 9358.54 3594.18 9352.19 3594.18 9347.04 3589.03 9347.04 3582.68 9347.04 3576.33 9352.19 3571.18 9358.54 3571.18 9364.89 3571.18 9370.04 3576.33 9370.04 3582.68Z" fill="#4472C4" fill-rule="nonzero" fill-opacity="1"/><path d="M8085.04 3697.68C8085.04 3704.03 8079.89 3709.18 8073.54 3709.18 8067.19 3709.18 8062.04 3704.03 8062.04 3697.68 8062.04 3691.33 8067.19 3686.18 8073.54 3686.18 8079.89 3686.18 8085.04 3691.33 8085.04 3697.68Z" fill="#4472C4" fill-rule="nonzero" fill-opacity="1"/><path d="M8941.04 3714.68C8941.04 3721.03 8935.89 3726.18 8929.54 3726.18 8923.19 3726.18 8918.04 3721.03 8918.04 3714.68 8918.04 3708.33 8923.19 3703.18 8929.54 3703.18 8935.89 3703.18 8941.04 3708.33 8941.04 3714.68Z" fill="#4472C4" fill-rule="nonzero" fill-opacity="1"/><path d="M8758.04 3722.68C8758.04 3729.03 8752.89 3734.18 8746.54 3734.18 8740.19 3734.18 8735.04 3729.03 8735.04 3722.68 8735.04 3716.33 8740.19 3711.18 8746.54 3711.18 8752.89 3711.18 8758.04 3716.33 8758.04 3722.68Z" fill="#4472C4" fill-rule="nonzero" fill-opacity="1"/><path d="M8146.04 3746.68C8146.04 3753.03 8140.89 3758.18 8134.54 3758.18 8128.19 3758.18 8123.04 3753.03 8123.04 3746.68 8123.04 3740.33 8128.19 3735.18 8134.54 3735.18 8140.89 3735.18 8146.04 3740.33 8146.04 3746.68Z" fill="#4472C4" fill-rule="nonzero" fill-opacity="1"/><path d="M8697.04 3760.68C8697.04 3767.03 8691.89 3772.18 8685.54 3772.18 8679.19 3772.18 8674.04 3767.03 8674.04 3760.68 8674.04 3754.33 8679.19 3749.18 8685.54 3749.18 8691.89 3749.18 8697.04 3754.33 8697.04 3760.68Z" fill="#4472C4" fill-rule="nonzero" fill-opacity="1"/><path d="M7840.04 3828.68C7840.04 3835.03 7834.89 3840.18 7828.54 3840.18 7822.19 3840.18 7817.04 3835.03 7817.04 3828.68 7817.04 3822.33 7822.19 3817.18 7828.54 3817.18 7834.89 3817.18 7840.04 3822.33 7840.04 3828.68Z" fill="#4472C4" fill-rule="nonzero" fill-opacity="1"/><path d="M8880.04 3829.68C8880.04 3836.03 8874.89 3841.18 8868.54 3841.18 8862.19 3841.18 8857.04 3836.03 8857.04 3829.68 8857.04 3823.33 8862.19 3818.18 8868.54 3818.18 8874.89 3818.18 8880.04 3823.33 8880.04 3829.68Z" fill="#4472C4" fill-rule="nonzero" fill-opacity="1"/><path d="M8819.04 3833.68C8819.04 3840.03 8813.89 3845.18 8807.54 3845.18 8801.19 3845.18 8796.04 3840.03 8796.04 3833.68 8796.04 3827.33 8801.19 3822.18 8807.54 3822.18 8813.89 3822.18 8819.04 3827.33 8819.04 3833.68Z" fill="#4472C4" fill-rule="nonzero" fill-opacity="1"/><path d="M7901.04 3850.68C7901.04 3857.03 7895.89 3862.18 7889.54 3862.18 7883.19 3862.18 7878.04 3857.03 7878.04 3850.68 7878.04 3844.33 7883.19 3839.18 7889.54 3839.18 7895.89 3839.18 7901.04 3844.33 7901.04 3850.68Z" fill="#4472C4" fill-rule="nonzero" fill-opacity="1"/><path d="M8207.04 3851.68C8207.04 3858.03 8201.89 3863.18 8195.54 3863.18 8189.19 3863.18 8184.04 3858.03 8184.04 3851.68 8184.04 3845.33 8189.19 3840.18 8195.54 3840.18 8201.89 3840.18 8207.04 3845.33 8207.04 3851.68Z" fill="#4472C4" fill-rule="nonzero" fill-opacity="1"/><path d="M7779.04 3896.68C7779.04 3903.03 7773.89 3908.18 7767.54 3908.18 7761.19 3908.18 7756.04 3903.03 7756.04 3896.68 7756.04 3890.33 7761.19 3885.18 7767.54 3885.18 7773.89 3885.18 7779.04 3890.33 7779.04 3896.68Z" fill="#4472C4" fill-rule="nonzero" fill-opacity="1"/><path d="M8024.04 3914.68C8024.04 3921.03 8018.89 3926.18 8012.54 3926.18 8006.19 3926.18 8001.04 3921.03 8001.04 3914.68 8001.04 3908.33 8006.19 3903.18 8012.54 3903.18 8018.89 3903.18 8024.04 3908.33 8024.04 3914.68Z" fill="#4472C4" fill-rule="nonzero" fill-opacity="1"/><path d="M7962.04 3951.68C7962.04 3958.03 7956.89 3963.18 7950.54 3963.18 7944.19 3963.18 7939.04 3958.03 7939.04 3951.68 7939.04 3945.33 7944.19 3940.18 7950.54 3940.18 7956.89 3940.18 7962.04 3945.33 7962.04 3951.68Z" fill="#4472C4" fill-rule="nonzero" fill-opacity="1"/><path d="M7595.04 3951.68C7595.04 3958.03 7589.89 3963.18 7583.54 3963.18 7577.19 3963.18 7572.04 3958.03 7572.04 3951.68 7572.04 3945.33 7577.19 3940.18 7583.54 3940.18 7589.89 3940.18 7595.04 3945.33 7595.04 3951.68Z" fill="#4472C4" fill-rule="nonzero" fill-opacity="1"/><path d="M8268.04 3952.68C8268.04 3959.03 8262.89 3964.18 8256.54 3964.18 8250.19 3964.18 8245.04 3959.03 8245.04 3952.68 8245.04 3946.33 8250.19 3941.18 8256.54 3941.18 8262.89 3941.18 8268.04 3946.33 8268.04 3952.68Z" fill="#4472C4" fill-rule="nonzero" fill-opacity="1"/><path d="M7656.04 3966.68C7656.04 3973.03 7650.89 3978.18 7644.54 3978.18 7638.19 3978.18 7633.04 3973.03 7633.04 3966.68 7633.04 3960.33 7638.19 3955.18 7644.54 3955.18 7650.89 3955.18 7656.04 3960.33 7656.04 3966.68Z" fill="#4472C4" fill-rule="nonzero" fill-opacity="1"/><path d="M7718.04 3987.68C7718.04 3994.03 7712.89 3999.18 7706.54 3999.18 7700.19 3999.18 7695.04 3994.03 7695.04 3987.68 7695.04 3981.33 7700.19 3976.18 7706.54 3976.18 7712.89 3976.18 7718.04 3981.33 7718.04 3987.68Z" fill="#4472C4" fill-rule="nonzero" fill-opacity="1"/><path d="M8574.04 4069.68C8574.04 4076.03 8568.89 4081.18 8562.54 4081.18 8556.19 4081.18 8551.04 4076.03 8551.04 4069.68 8551.04 4063.33 8556.19 4058.18 8562.54 4058.18 8568.89 4058.18 8574.04 4063.33 8574.04 4069.68Z" fill="#4472C4" fill-rule="nonzero" fill-opacity="1"/><path d="M7534.04 4134.68C7534.04 4141.03 7528.89 4146.18 7522.54 4146.18 7516.19 4146.18 7511.04 4141.03 7511.04 4134.68 7511.04 4128.33 7516.19 4123.18 7522.54 4123.18 7528.89 4123.18 7534.04 4128.33 7534.04 4134.68Z" fill="#4472C4" fill-rule="nonzero" fill-opacity="1"/><path d="M8513.04 4136.68C8513.04 4143.03 8507.89 4148.18 8501.54 4148.18 8495.19 4148.18 8490.04 4143.03 8490.04 4136.68 8490.04 4130.33 8495.19 4125.18 8501.54 4125.18 8507.89 4125.18 8513.04 4130.33 8513.04 4136.68Z" fill="#4472C4" fill-rule="nonzero" fill-opacity="1"/><path d="M8330.04 4158.68C8330.04 4165.03 8324.89 4170.18 8318.54 4170.18 8312.19 4170.18 8307.04 4165.03 8307.04 4158.68 8307.04 4152.33 8312.19 4147.18 8318.54 4147.18 8324.89 4147.18 8330.04 4152.33 8330.04 4158.68Z" fill="#4472C4" fill-rule="nonzero" fill-opacity="1"/><path d="M8635.04 4169.68C8635.04 4176.03 8629.89 4181.18 8623.54 4181.18 8617.19 4181.18 8612.04 4176.03 8612.04 4169.68 8612.04 4163.33 8617.19 4158.18 8623.54 4158.18 8629.89 4158.18 8635.04 4163.33 8635.04 4169.68Z" fill="#4472C4" fill-rule="nonzero" fill-opacity="1"/><path d="M7167.04 4192.68C7167.04 4199.03 7161.89 4204.18 7155.54 4204.18 7149.19 4204.18 7144.04 4199.03 7144.04 4192.68 7144.04 4186.33 7149.19 4181.18 7155.54 4181.18 7161.89 4181.18 7167.04 4186.33 7167.04 4192.68Z" fill="#4472C4" fill-rule="nonzero" fill-opacity="1"/><path d="M7473.04 4193.68C7473.04 4200.03 7467.89 4205.18 7461.54 4205.18 7455.19 4205.18 7450.04 4200.03 7450.04 4193.68 7450.04 4187.33 7455.19 4182.18 7461.54 4182.18 7467.89 4182.18 7473.04 4187.33 7473.04 4193.68Z" fill="#4472C4" fill-rule="nonzero" fill-opacity="1"/><path d="M8452.04 4289.68C8452.04 4296.03 8446.89 4301.18 8440.54 4301.18 8434.19 4301.18 8429.04 4296.03 8429.04 4289.68 8429.04 4283.33 8434.19 4278.18 8440.54 4278.18 8446.89 4278.18 8452.04 4283.33 8452.04 4289.68Z" fill="#4472C4" fill-rule="nonzero" fill-opacity="1"/><path d="M7412.04 4291.68C7412.04 4298.03 7406.89 4303.18 7400.54 4303.18 7394.19 4303.18 7389.04 4298.03 7389.04 4291.68 7389.04 4285.33 7394.19 4280.18 7400.54 4280.18 7406.89 4280.18 7412.04 4285.33 7412.04 4291.68Z" fill="#4472C4" fill-rule="nonzero" fill-opacity="1"/><path d="M7228.04 4372.68C7228.04 4379.03 7222.89 4384.18 7216.54 4384.18 7210.19 4384.18 7205.04 4379.03 7205.04 4372.68 7205.04 4366.33 7210.19 4361.18 7216.54 4361.18 7222.89 4361.18 7228.04 4366.33 7228.04 4372.68Z" fill="#4472C4" fill-rule="nonzero" fill-opacity="1"/><path d="M8391.04 4382.68C8391.04 4389.03 8385.89 4394.18 8379.54 4394.18 8373.19 4394.18 8368.04 4389.03 8368.04 4382.68 8368.04 4376.33 8373.19 4371.18 8379.54 4371.18 8385.89 4371.18 8391.04 4376.33 8391.04 4382.68Z" fill="#4472C4" fill-rule="nonzero" fill-opacity="1"/><path d="M7289.04 4431.68C7289.04 4438.03 7283.89 4443.18 7277.54 4443.18 7271.19 4443.18 7266.04 4438.03 7266.04 4431.68 7266.04 4425.33 7271.19 4420.18 7277.54 4420.18 7283.89 4420.18 7289.04 4425.33 7289.04 4431.68Z" fill="#4472C4" fill-rule="nonzero" fill-opacity="1"/><path d="M7351.04 4489.68C7351.04 4496.03 7345.89 4501.18 7339.54 4501.18 7333.19 4501.18 7328.04 4496.03 7328.04 4489.68 7328.04 4483.33 7333.19 4478.18 7339.54 4478.18 7345.89 4478.18 7351.04 4483.33 7351.04 4489.68Z" fill="#4472C4" fill-rule="nonzero" fill-opacity="1"/><path d="M6983.04 4550.68C6983.04 4557.03 6977.89 4562.18 6971.54 4562.18 6965.19 4562.18 6960.04 4557.03 6960.04 4550.68 6960.04 4544.33 6965.19 4539.18 6971.54 4539.18 6977.89 4539.18 6983.04 4544.33 6983.04 4550.68Z" fill="#4472C4" fill-rule="nonzero" fill-opacity="1"/><path d="M7106.04 4555.68C7106.04 4562.03 7100.89 4567.18 7094.54 4567.18 7088.19 4567.18 7083.04 4562.03 7083.04 4555.68 7083.04 4549.33 7088.19 4544.18 7094.54 4544.18 7100.89 4544.18 7106.04 4549.33 7106.04 4555.68Z" fill="#4472C4" fill-rule="nonzero" fill-opacity="1"/><path d="M6922.04 4605.68C6922.04 4612.03 6916.89 4617.18 6910.54 4617.18 6904.19 4617.18 6899.04 4612.03 6899.04 4605.68 6899.04 4599.33 6904.19 4594.18 6910.54 4594.18 6916.89 4594.18 6922.04 4599.33 6922.04 4605.68Z" fill="#4472C4" fill-rule="nonzero" fill-opacity="1"/><path d="M7045.04 4627.68C7045.04 4634.03 7039.89 4639.18 7033.54 4639.18 7027.19 4639.18 7022.04 4634.03 7022.04 4627.68 7022.04 4621.33 7027.19 4616.18 7033.54 4616.18 7039.89 4616.18 7045.04 4621.33 7045.04 4627.68Z" fill="#4472C4" fill-rule="nonzero" fill-opacity="1"/><path d="M6861.04 4830.68C6861.04 4837.03 6855.89 4842.18 6849.54 4842.18 6843.19 4842.18 6838.04 4837.03 6838.04 4830.68 6838.04 4824.33 6843.19 4819.18 6849.54 4819.18 6855.89 4819.18 6861.04 4824.33 6861.04 4830.68Z" fill="#4472C4" fill-rule="nonzero" fill-opacity="1"/></g><g clip-path="url(#clip6)"><path d="M9002 3542.5C9002 3548.85 8996.85 3554 8990.5 3554 8984.15 3554 8979 3548.85 8979 3542.5 8979 3536.15 8984.15 3531 8990.5 3531 8996.85 3531 9002 3536.15 9002 3542.5Z" fill="#70AD47" fill-rule="nonzero" fill-opacity="1"/></g><g clip-path="url(#clip7)"><path d="M9063 3597.5C9063 3603.85 9057.85 3609 9051.5 3609 9045.15 3609 9040 3603.85 9040 3597.5 9040 3591.15 9045.15 3586 9051.5 3586 9057.85 3586 9063 3591.15 9063 3597.5Z" fill="#ED7D31" fill-rule="nonzero" fill-opacity="1"/></g><g clip-path="url(#clip8)"><path d="M8990.5 3542.5 8963.79 3342.5 8942.5 3342.5" stroke="#000000" stroke-width="3.4375" stroke-linecap="butt" stroke-linejoin="round" stroke-miterlimit="10" stroke-opacity="1" fill="none" fill-rule="nonzero"/></g><g clip-path="url(#clip9)"><path d="M9051.5 3597.5 9151.5 3775.5" stroke="#000000" stroke-width="3.4375" stroke-linecap="butt" stroke-linejoin="round" stroke-miterlimit="10" stroke-opacity="1" fill="none" fill-rule="nonzero"/></g><g clip-path="url(#clip10)"><rect x="8784.5" y="3302.5" width="158" height="80" stroke="#000000" stroke-width="3.4375" stroke-linecap="butt" stroke-linejoin="round" stroke-miterlimit="10" stroke-opacity="1" fill="#FFFFFF" fill-opacity="1"/></g><g clip-path="url(#clip11)"><text fill="#404040" fill-opacity="1" font-family="Century Schoolbook,Century Schoolbook_MSFontService,sans-serif" font-style="normal" font-variant="normal" font-weight="700" font-stretch="normal" font-size="28" text-anchor="start" direction="ltr" writing-mode="lr-tb" unicode-bidi="normal" text-decoration="none" transform="matrix(1 0 0 1 8832 3336)">2003</text></g><g clip-path="url(#clip12)"><text fill="#404040" fill-opacity="1" font-family="Century Schoolbook,Century Schoolbook_MSFontService,sans-serif" font-style="normal" font-variant="normal" font-weight="400" font-stretch="normal" font-size="28" text-anchor="start" direction="ltr" writing-mode="lr-tb" unicode-bidi="normal" text-decoration="none" transform="matrix(1 0 0 1 8797.95 3369)">α = 1.0238</text></g><g clip-path="url(#clip13)"><rect x="9071.5" y="3775.5" width="159" height="79" stroke="#000000" stroke-width="3.4375" stroke-linecap="butt" stroke-linejoin="round" stroke-miterlimit="10" stroke-opacity="1" fill="#FFFFFF" fill-opacity="1"/></g><g clip-path="url(#clip14)"><text fill="#404040" fill-opacity="1" font-family="Century Schoolbook,Century Schoolbook_MSFontService,sans-serif" font-style="normal" font-variant="normal" font-weight="700" font-stretch="normal" font-size="28" text-anchor="start" direction="ltr" writing-mode="lr-tb" unicode-bidi="normal" text-decoration="none" transform="matrix(1 0 0 1 9119.66 3809)">2004</text></g><g clip-path="url(#clip15)"><text fill="#404040" fill-opacity="1" font-family="Century Schoolbook,Century Schoolbook_MSFontService,sans-serif" font-style="normal" font-variant="normal" font-weight="400" font-stretch="normal" font-size="28" text-anchor="start" direction="ltr" writing-mode="lr-tb" unicode-bidi="normal" text-decoration="none" transform="matrix(1 0 0 1 9085.61 3842)">α = 1.0233</text></g><g clip-path="url(#clip16)"><text fill="#595959" fill-opacity="1" font-family="Century Schoolbook,Century Schoolbook_MSFontService,sans-serif" font-style="normal" font-variant="normal" font-weight="400" font-stretch="normal" font-size="41" text-anchor="start" direction="ltr" writing-mode="lr-tb" unicode-bidi="normal" text-decoration="none" transform="matrix(1 0 0 1 6195.05 4984)">1.0100</text></g><g clip-path="url(#clip17)"><text fill="#595959" fill-opacity="1" font-family="Century Schoolbook,Century Schoolbook_MSFontService,sans-serif" font-style="normal" font-variant="normal" font-weight="400" font-stretch="normal" font-size="41" text-anchor="start" direction="ltr" writing-mode="lr-tb" unicode-bidi="normal" text-decoration="none" transform="matrix(1 0 0 1 6195.05 4777)">1.0120</text></g><g clip-path="url(#clip18)"><text fill="#595959" fill-opacity="1" font-family="Century Schoolbook,Century Schoolbook_MSFontService,sans-serif" font-style="normal" font-variant="normal" font-weight="400" font-stretch="normal" font-size="41" text-anchor="start" direction="ltr" writing-mode="lr-tb" unicode-bidi="normal" text-decoration="none" transform="matrix(1 0 0 1 6195.05 4570)">1.0140</text></g><g clip-path="url(#clip19)"><text fill="#595959" fill-opacity="1" font-family="Century Schoolbook,Century Schoolbook_MSFontService,sans-serif" font-style="normal" font-variant="normal" font-weight="400" font-stretch="normal" font-size="41" text-anchor="start" direction="ltr" writing-mode="lr-tb" unicode-bidi="normal" text-decoration="none" transform="matrix(1 0 0 1 6195.05 4363)">1.0160</text></g><g clip-path="url(#clip20)"><text fill="#595959" fill-opacity="1" font-family="Century Schoolbook,Century Schoolbook_MSFontService,sans-serif" font-style="normal" font-variant="normal" font-weight="400" font-stretch="normal" font-size="41" text-anchor="start" direction="ltr" writing-mode="lr-tb" unicode-bidi="normal" text-decoration="none" transform="matrix(1 0 0 1 6195.05 4156)">1.0180</text></g><g clip-path="url(#clip21)"><text fill="#595959" fill-opacity="1" font-family="Century Schoolbook,Century Schoolbook_MSFontService,sans-serif" font-style="normal" font-variant="normal" font-weight="400" font-stretch="normal" font-size="41" text-anchor="start" direction="ltr" writing-mode="lr-tb" unicode-bidi="normal" text-decoration="none" transform="matrix(1 0 0 1 6195.05 3949)">1.0200</text></g><g clip-path="url(#clip22)"><text fill="#595959" fill-opacity="1" font-family="Century Schoolbook,Century Schoolbook_MSFontService,sans-serif" font-style="normal" font-variant="normal" font-weight="400" font-stretch="normal" font-size="41" text-anchor="start" direction="ltr" writing-mode="lr-tb" unicode-bidi="normal" text-decoration="none" transform="matrix(1 0 0 1 6195.05 3742)">1.0220</text></g><g clip-path="url(#clip23)"><text fill="#595959" fill-opacity="1" font-family="Century Schoolbook,Century Schoolbook_MSFontService,sans-serif" font-style="normal" font-variant="normal" font-weight="400" font-stretch="normal" font-size="41" text-anchor="start" direction="ltr" writing-mode="lr-tb" unicode-bidi="normal" text-decoration="none" transform="matrix(1 0 0 1 6195.05 3535)">1.0240</text></g><g clip-path="url(#clip24)"><text fill="#595959" fill-opacity="1" font-family="Century Schoolbook,Century Schoolbook_MSFontService,sans-serif" font-style="normal" font-variant="normal" font-weight="400" font-stretch="normal" font-size="41" text-anchor="start" direction="ltr" writing-mode="lr-tb" unicode-bidi="normal" text-decoration="none" transform="matrix(1 0 0 1 6195.05 3328)">1.0260</text></g><g clip-path="url(#clip25)"><text fill="#595959" fill-opacity="1" font-family="Century Schoolbook,Century Schoolbook_MSFontService,sans-serif" font-style="normal" font-variant="normal" font-weight="400" font-stretch="normal" font-size="41" text-anchor="start" direction="ltr" writing-mode="lr-tb" unicode-bidi="normal" text-decoration="none" transform="matrix(1 0 0 1 6195.05 3121)">1.0280</text></g><g clip-path="url(#clip26)"><text fill="#595959" fill-opacity="1" font-family="Century Schoolbook,Century Schoolbook_MSFontService,sans-serif" font-style="normal" font-variant="normal" font-weight="400" font-stretch="normal" font-size="41" text-anchor="start" direction="ltr" writing-mode="lr-tb" unicode-bidi="normal" text-decoration="none" transform="matrix(1 0 0 1 6195.05 2914)">1.0300</text></g><g clip-path="url(#clip27)"><text fill="#595959" fill-opacity="1" font-family="Century Schoolbook,Century Schoolbook_MSFontService,sans-serif" font-style="normal" font-variant="normal" font-weight="400" font-stretch="normal" font-size="41" text-anchor="start" direction="ltr" writing-mode="lr-tb" unicode-bidi="normal" text-decoration="none" transform="matrix(1 0 0 1 6313.65 5039)">1960</text></g><g clip-path="url(#clip28)"><text fill="#595959" fill-opacity="1" font-family="Century Schoolbook,Century Schoolbook_MSFontService,sans-serif" font-style="normal" font-variant="normal" font-weight="400" font-stretch="normal" font-size="41" text-anchor="start" direction="ltr" writing-mode="lr-tb" unicode-bidi="normal" text-decoration="none" transform="matrix(1 0 0 1 6925.53 5039)">1970</text></g><g clip-path="url(#clip29)"><text fill="#595959" fill-opacity="1" font-family="Century Schoolbook,Century Schoolbook_MSFontService,sans-serif" font-style="normal" font-variant="normal" font-weight="400" font-stretch="normal" font-size="41" text-anchor="start" direction="ltr" writing-mode="lr-tb" unicode-bidi="normal" text-decoration="none" transform="matrix(1 0 0 1 7537.41 5039)">1980</text></g><g clip-path="url(#clip30)"><text fill="#595959" fill-opacity="1" font-family="Century Schoolbook,Century Schoolbook_MSFontService,sans-serif" font-style="normal" font-variant="normal" font-weight="400" font-stretch="normal" font-size="41" text-anchor="start" direction="ltr" writing-mode="lr-tb" unicode-bidi="normal" text-decoration="none" transform="matrix(1 0 0 1 8149.29 5039)">1990</text></g><g clip-path="url(#clip31)"><text fill="#595959" fill-opacity="1" font-family="Century Schoolbook,Century Schoolbook_MSFontService,sans-serif" font-style="normal" font-variant="normal" font-weight="400" font-stretch="normal" font-size="41" text-anchor="start" direction="ltr" writing-mode="lr-tb" unicode-bidi="normal" text-decoration="none" transform="matrix(1 0 0 1 8761.17 5039)">2000</text></g><g clip-path="url(#clip32)"><text fill="#595959" fill-opacity="1" font-family="Century Schoolbook,Century Schoolbook_MSFontService,sans-serif" font-style="normal" font-variant="normal" font-weight="400" font-stretch="normal" font-size="41" text-anchor="start" direction="ltr" writing-mode="lr-tb" unicode-bidi="normal" text-decoration="none" transform="matrix(1 0 0 1 9373.05 5039)">2010</text></g><g clip-path="url(#clip33)"><text fill="#595959" fill-opacity="1" font-family="Century Schoolbook,Century Schoolbook_MSFontService,sans-serif" font-style="normal" font-variant="normal" font-weight="400" font-stretch="normal" font-size="41" text-anchor="start" direction="ltr" writing-mode="lr-tb" unicode-bidi="normal" text-decoration="none" transform="matrix(1 0 0 1 9984.93 5039)">2020</text></g><g clip-path="url(#clip34)"><text fill="#595959" fill-opacity="1" font-family="Century Schoolbook,Century Schoolbook_MSFontService,sans-serif" font-style="normal" font-variant="normal" font-weight="400" font-stretch="normal" font-size="41" text-anchor="start" direction="ltr" writing-mode="lr-tb" unicode-bidi="normal" text-decoration="none" transform="matrix(1 0 0 1 10596.8 5039)">2030</text></g><g clip-path="url(#clip35)"><text fill="#595959" fill-opacity="1" font-family="Century Schoolbook,Century Schoolbook_MSFontService,sans-serif" font-style="normal" font-variant="normal" font-weight="400" font-stretch="normal" font-size="46" text-anchor="start" direction="ltr" writing-mode="lr-tb" unicode-bidi="normal" text-decoration="none" transform="matrix(6.12323e-17 -1 1 6.12323e-17 6122.5 4295)">Carbon Dioxide Ratio Indicator, </text></g><g clip-path="url(#clip36)"><text fill="#595959" fill-opacity="1" font-family="Century Schoolbook,Century Schoolbook_MSFontService,sans-serif" font-style="normal" font-variant="normal" font-weight="400" font-stretch="normal" font-size="46" text-anchor="start" direction="ltr" writing-mode="lr-tb" unicode-bidi="normal" text-decoration="none" transform="matrix(6.12323e-17 -1 1 6.12323e-17 6122.5 3606)">α</text></g><g clip-path="url(#clip37)"><text fill="#595959" fill-opacity="1" font-family="Century Schoolbook,Century Schoolbook_MSFontService,sans-serif" font-style="normal" font-variant="normal" font-weight="400" font-stretch="normal" font-size="46" text-anchor="start" direction="ltr" writing-mode="lr-tb" unicode-bidi="normal" text-decoration="none" transform="matrix(1 0 0 1 8324.62 5162)">Decade End Year</text></g><g clip-path="url(#clip38)"><text fill="#595959" fill-opacity="1" font-family="Century Schoolbook,Century Schoolbook_MSFontService,sans-serif" font-style="normal" font-variant="normal" font-weight="400" font-stretch="normal" font-size="83" text-anchor="start" direction="ltr" writing-mode="lr-tb" unicode-bidi="normal" text-decoration="none" transform="matrix(1 0 0 1 6748.84 2723)">Ratio of the average CO</text></g><g clip-path="url(#clip39)"><text fill="#595959" fill-opacity="1" font-family="Century Schoolbook,Century Schoolbook_MSFontService,sans-serif" font-style="normal" font-variant="normal" font-weight="400" font-stretch="normal" font-size="55" text-anchor="start" direction="ltr" writing-mode="lr-tb" unicode-bidi="normal" text-decoration="none" transform="matrix(1 0 0 1 7661.06 2743)">2</text></g><g clip-path="url(#clip40)"><text fill="#595959" fill-opacity="1" font-family="Century Schoolbook,Century Schoolbook_MSFontService,sans-serif" font-style="normal" font-variant="normal" font-weight="400" font-stretch="normal" font-size="83" text-anchor="start" direction="ltr" writing-mode="lr-tb" unicode-bidi="normal" text-decoration="none" transform="matrix(1 0 0 1 7714.57 2723)">level at the end of each decade to the ten</text></g><g clip-path="url(#clip41)"><text fill="#595959" fill-opacity="1" font-family="Century Schoolbook,Century Schoolbook_MSFontService,sans-serif" font-style="normal" font-variant="normal" font-weight="400" font-stretch="normal" font-size="83" text-anchor="start" direction="ltr" writing-mode="lr-tb" unicode-bidi="normal" text-decoration="none" transform="matrix(1 0 0 1 9263.83 2723)">-</text></g><g clip-path="url(#clip42)"><text fill="#595959" fill-opacity="1" font-family="Century Schoolbook,Century Schoolbook_MSFontService,sans-serif" font-style="normal" font-variant="normal" font-weight="400" font-stretch="normal" font-size="83" text-anchor="start" direction="ltr" writing-mode="lr-tb" unicode-bidi="normal" text-decoration="none" transform="matrix(1 0 0 1 9291.31 2723)">year average, over time</text></g><rect x="6013.5" y="2501.5" width="4738" height="2727" stroke="#D9D9D9" stroke-width="3.4375" stroke-linecap="butt" stroke-linejoin="round" stroke-miterlimit="10" stroke-opacity="1" fill="none"/></g></svg>